<?xml version="1.0" encoding="UTF-8" standalone="no"?>
<!-- Created with Inkscape (http://www.inkscape.org/) -->

<svg
   xmlns:dc="http://purl.org/dc/elements/1.1/"
   xmlns:cc="http://creativecommons.org/ns#"
   xmlns:rdf="http://www.w3.org/1999/02/22-rdf-syntax-ns#"
   xmlns:svg="http://www.w3.org/2000/svg"
   xmlns="http://www.w3.org/2000/svg"
   xmlns:xlink="http://www.w3.org/1999/xlink"
   xmlns:sodipodi="http://sodipodi.sourceforge.net/DTD/sodipodi-0.dtd"
   xmlns:inkscape="http://www.inkscape.org/namespaces/inkscape"
   width="210mm"
   height="297mm"
   viewBox="0 0 210 297"
   version="1.1"
   id="svg8"
   sodipodi:docname="logoICS.svg"
   inkscape:version="0.92.4 (5da689c313, 2019-01-14)">
  <defs
     id="defs2">
    <marker
       inkscape:stockid="Arrow1Lstart"
       orient="auto"
       refY="0.0"
       refX="0.0"
       id="Arrow1Lstart"
       style="overflow:visible"
       inkscape:isstock="true">
      <path
         id="path6541"
         d="M 0.0,0.0 L 5.0,-5.0 L -12.5,0.0 L 5.0,5.0 L 0.0,0.0 z "
         style="fill-rule:evenodd;stroke:none;stroke-width:1pt;stroke-opacity:1;fill:#88aa00;fill-opacity:1"
         transform="scale(0.8) translate(12.5,0)" />
    </marker>
    <linearGradient
       inkscape:collect="always"
       id="linearGradient6340">
      <stop
         style="stop-color:#88aa00;stop-opacity:1;"
         offset="0"
         id="stop6336" />
      <stop
         style="stop-color:#88aa00;stop-opacity:0;"
         offset="1"
         id="stop6338" />
    </linearGradient>
    <inkscape:perspective
       sodipodi:type="inkscape:persp3d"
       inkscape:vp_x="101.18433 : 133.24364 : 1"
       inkscape:vp_y="0 : 1084.834 : 0"
       inkscape:vp_z="371.54387 : 133.24364 : 1"
       inkscape:persp3d-origin="236.3641 : 79.544363 : 1"
       id="perspective3717" />
    <radialGradient
       inkscape:collect="always"
       xlink:href="#linearGradient6340"
       id="radialGradient6344"
       cx="589.26489"
       cy="108.0119"
       fx="589.26489"
       fy="108.0119"
       r="160.01622"
       gradientTransform="matrix(0.62194857,0,0,0.83715293,-259.5252,58.41086)"
       gradientUnits="userSpaceOnUse" />
    <filter
       inkscape:collect="always"
       style="color-interpolation-filters:sRGB"
       id="filter6520"
       x="-0.052830195"
       width="1.1056604"
       y="-0.038290005"
       height="1.07658">
      <feGaussianBlur
         inkscape:collect="always"
         stdDeviation="4.5062635"
         id="feGaussianBlur6522" />
    </filter>
  </defs>
  <sodipodi:namedview
     id="base"
     pagecolor="#ffffff"
     bordercolor="#666666"
     borderopacity="1.0"
     inkscape:pageopacity="0.0"
     inkscape:pageshadow="2"
     inkscape:zoom="0.98994949"
     inkscape:cx="533.47567"
     inkscape:cy="681.39112"
     inkscape:document-units="mm"
     inkscape:current-layer="layer5"
     showgrid="false"
     inkscape:window-width="1920"
     inkscape:window-height="1001"
     inkscape:window-x="2391"
     inkscape:window-y="-9"
     inkscape:window-maximized="1" />
  <metadata
     id="metadata5">
    <rdf:RDF>
      <cc:Work
         rdf:about="">
        <dc:format>image/svg+xml</dc:format>
        <dc:type
           rdf:resource="http://purl.org/dc/dcmitype/StillImage" />
        <dc:title></dc:title>
      </cc:Work>
    </rdf:RDF>
  </metadata>
  <g
     inkscape:groupmode="layer"
     id="layer5"
     inkscape:label="Capa 4"
     style="opacity:0.4">
    <rect
       style="opacity:0.11000001;fill:#ffffff;fill-opacity:1;stroke:none;stroke-width:3.35599995;stroke-miterlimit:4;stroke-dasharray:none;stroke-opacity:1;paint-order:stroke markers fill"
       id="rect6836"
       width="204.71309"
       height="282.45053"
       x="3.9297442"
       y="8.2261906" />
    <path
       style="opacity:1;fill:#ffffff;fill-opacity:1;stroke:none;stroke-width:36.24026871;stroke-miterlimit:4;stroke-dasharray:none;stroke-opacity:1;paint-order:stroke markers fill"
       d="M 42.938999,395.96607 C 42.407828,72.112076 42.43648,70.310232 48.209211,64.537501 c 5.770772,-5.770772 7.814452,-5.804287 353.932889,-5.804287 401.50603,0 356.856,-4.046125 359.62668,32.588871 0.90252,11.933265 0.71483,21.696845 -0.41705,21.696845 -1.13189,0 -9.35317,-5.58635 -18.26955,-12.41411 -33.86054,-25.928963 -57.84314,-40.285741 -62.44605,-37.382297 -3.42549,2.160745 -80.28835,142.071407 -84.64823,154.082117 -0.57043,1.57143 -7.18194,-2.28571 -14.69223,-8.57143 -38.61303,-32.31708 -71.98471,-51.16139 -111.70886,-63.07972 -21.81323,-6.54456 -31.03448,-7.70194 -62.71617,-7.87164 -41.52728,-0.22244 -62.08374,3.68301 -97.92803,18.60503 -62.2422,25.91149 -122.56444,85.01502 -162.77786,159.48919 -53.935615,99.88732 -71.810492,237.6424 -46.840152,360.97977 l 4.954852,24.47377 -28.20426,10.13038 c -15.512345,5.57171 -29.193779,10.13037 -30.403189,10.13037 -1.20941,0 -2.439261,-146.53092 -2.733002,-325.62429 z"
       id="path6838"
       inkscape:connector-curvature="0"
       transform="scale(0.26458333)" />
  </g>
  <g
     inkscape:groupmode="layer"
     id="layer4"
     inkscape:label="Capa 3"
     style="display:inline">
    <rect
       style="opacity:0.11000001;fill:#ccff00;fill-opacity:1;stroke:none;stroke-width:3.35599995;stroke-miterlimit:4;stroke-dasharray:none;stroke-opacity:1;paint-order:stroke markers fill"
       id="rect6539"
       width="204.71309"
       height="282.45053"
       x="3.9297445"
       y="8.2261906" />
  </g>
  <g
     inkscape:label="Capa 1"
     inkscape:groupmode="layer"
     id="layer1"
     style="display:inline;opacity:1">
    <g
       inkscape:groupmode="layer"
       id="layer3"
       inkscape:label="Capa 2">
      <rect
         style="opacity:0.72000002;fill:#000000;fill-opacity:1;stroke:none;stroke-width:3.35599995;stroke-miterlimit:4;stroke-dasharray:none;stroke-opacity:1;paint-order:stroke markers fill;filter:url(#filter6520)"
         id="rect6358"
         width="204.71309"
         height="282.45053"
         x="3.9297447"
         y="8.2261906"
         ry="0" />
    </g>
    <g
       style="opacity:1;paint-order:stroke markers fill;stroke-width:3.356;stroke-miterlimit:4;stroke-dasharray:none"
       id="use6198"
       transform="translate(1.9101428,0.08805786)">
      <path
         id="path6316"
         style="fill:#353564;fill-rule:evenodd;stroke:none;stroke-width:3.356;stroke-linejoin:round;paint-order:stroke markers fill;stroke-miterlimit:4;stroke-dasharray:none"
         d="M 179.04298,16.996728 V 126.26532 l 24.48826,4.76928 V 35.666196 Z"
         inkscape:connector-curvature="0" />
      <path
         id="path6318"
         style="fill:#afafde;fill-rule:evenodd;stroke:none;stroke-width:3.356;stroke-linejoin:round;paint-order:stroke markers fill;stroke-miterlimit:4;stroke-dasharray:none"
         d="M 179.04298,126.26532 44.415425,191.09213 5.5169208,194.34259 203.53124,131.0346 Z"
         inkscape:connector-curvature="0" />
      <path
         id="path6320"
         style="fill:#8686bf;fill-rule:evenodd;stroke:none;stroke-width:3.356;stroke-linejoin:round;paint-order:stroke markers fill;stroke-miterlimit:4;stroke-dasharray:none"
         d="M 179.04298,16.996728 44.415425,270.7629 V 191.09213 L 179.04298,126.26532 Z"
         inkscape:connector-curvature="0" />
      <path
         id="path6322"
         style="fill:#4d4d9f;fill-rule:evenodd;stroke:none;stroke-width:3.356;stroke-linejoin:round;paint-order:stroke markers fill;stroke-miterlimit:4;stroke-dasharray:none"
         d="M 179.04298,16.996728 44.415425,270.7629 5.5169208,283.48694 203.53124,35.666196 Z"
         inkscape:connector-curvature="0" />
      <path
         id="path6324"
         style="fill:#e9e9ff;fill-rule:evenodd;stroke:none;stroke-width:3.356;stroke-linejoin:round;paint-order:stroke markers fill;stroke-miterlimit:4;stroke-dasharray:none"
         d="M 203.53124,35.666196 5.5169208,283.48694 V 194.34259 L 203.53124,131.0346 Z"
         inkscape:connector-curvature="0" />
      <path
         id="path6326"
         style="fill:#d7d7ff;fill-rule:evenodd;stroke:none;stroke-width:3.356;stroke-linejoin:round;paint-order:stroke markers fill;stroke-miterlimit:4;stroke-dasharray:none"
         d="m 44.415425,270.7629 v -79.67077 l -38.8985042,3.25046 v 89.14435 z"
         inkscape:connector-curvature="0" />
    </g>
    <path
       style="opacity:1;fill:#ccff00;fill-opacity:1;stroke:#000000;stroke-width:2.85714293;stroke-opacity:1;paint-order:stroke markers fill"
       d=""
       id="path6266"
       inkscape:connector-curvature="0"
       transform="scale(0.26458333)" />
    <path
       style="opacity:1;fill:#aad400;fill-opacity:1;stroke:#000000;stroke-width:3.356;stroke-opacity:1;paint-order:stroke markers fill;stroke-miterlimit:4;stroke-dasharray:none"
       d="m 47.030253,251.8254 -0.0114,-17.20478 25.423086,-31.77028 c 13.982729,-17.47366 25.586803,-31.60659 25.786883,-31.40651 0.307627,0.30764 -7.654168,15.50068 -47.177983,90.02683 l -4.009076,7.55952 z"
       id="path6306"
       inkscape:connector-curvature="0" />
    <path
       style="opacity:1;fill:#aad400;fill-opacity:1;stroke:#000000;stroke-width:3.356;stroke-opacity:1;paint-order:stroke markers fill;stroke-miterlimit:4;stroke-dasharray:none"
       d="m 106.73873,158.03725 c 0,-0.66485 73.2671,-138.95752 74.10495,-139.874124 0.4391,-0.48039 18.25358,12.270664 23.67185,16.943576 0.35028,0.302114 -21.21228,27.885191 -47.91684,61.29573 -52.70542,65.941018 -49.85996,62.423608 -49.85996,61.634818 z"
       id="path6308"
       inkscape:connector-curvature="0" />
    <path
       style="opacity:1;fill:#ccff00;fill-opacity:1;stroke:#000000;stroke-width:3.356;stroke-opacity:1;paint-order:stroke markers fill;stroke-miterlimit:4;stroke-dasharray:none"
       d="m 46.262826,212.86292 c 0,-17.32396 -0.18994,-21.31785 -1.013904,-21.31785 -0.557677,0 -9.105479,0.69365 -18.995142,1.54145 -17.2744704,1.48087 -21.527914,1.55308 -16.14151,0.27405 1.380994,-0.32792 2.766025,-0.65795 3.077835,-0.73339 0.311837,-0.0755 0.737064,-0.22222 0.944954,-0.32616 0.207877,-0.10395 0.718154,-0.27403 1.133914,-0.37798 0.415767,-0.10394 0.926034,-0.27403 1.133921,-0.37797 0.20788,-0.10395 0.718147,-0.27404 1.133914,-0.37798 0.41577,-0.10394 0.926037,-0.27403 1.133924,-0.37798 0.20788,-0.10394 0.633117,-0.26001 0.944954,-0.34683 0.31181,-0.0868 1.460144,-0.53005 2.551808,-0.98498 1.851258,-0.77147 7.145638,-2.32491 9.732323,-2.85559 0.623677,-0.12795 1.218984,-0.30118 1.322914,-0.38497 0.103947,-0.0838 0.529167,-0.23738 0.944954,-0.34132 0.415757,-0.10394 0.926034,-0.27403 1.133914,-0.37798 0.207887,-0.10394 0.633097,-0.26001 0.944934,-0.34682 0.311827,-0.0868 1.490331,-0.54153 2.618905,-1.0105 2.100728,-0.87291 9.626896,-3.14862 11.836154,-3.57892 0.676984,-0.13186 1.315891,-0.30829 1.419851,-0.39208 0.10395,-0.0838 0.529157,-0.23737 0.944924,-0.34132 0.415787,-0.10394 0.926034,-0.27403 1.133914,-0.37797 0.20791,-0.10395 0.633117,-0.26002 0.944954,-0.34683 0.31181,-0.0868 1.490341,-0.54154 2.618915,-1.0105 1.845141,-0.76672 9.299419,-3.05839 11.458167,-3.52258 0.469077,-0.10087 1.421621,-0.43107 2.116758,-0.73378 0.695134,-0.30271 1.715678,-0.642 2.267865,-0.75398 0.552177,-0.11197 1.927341,-0.58302 3.055915,-1.04676 1.855968,-0.76264 9.344056,-3.05851 11.458174,-3.5131 0.469077,-0.10087 1.421621,-0.43107 2.116758,-0.73378 0.695137,-0.30271 1.715651,-0.64289 2.267838,-0.75596 0.552177,-0.11306 1.514221,-0.42137 2.137898,-0.68512 3.229092,-1.36565 7.559487,-2.64881 7.559487,-2.23999 0,0.36433 -52.660322,66.41286 -55.296687,69.35517 -0.355787,0.39707 -0.643497,-8.81321 -0.643497,-20.5997 z"
       id="path6310"
       inkscape:connector-curvature="0" />
    <path
       style="opacity:1;fill:#ccff00;fill-opacity:1;stroke:#000000;stroke-width:3.356;stroke-opacity:1;paint-order:stroke markers fill;stroke-miterlimit:4;stroke-dasharray:none"
       d="m 104.95417,162.92734 c -0.1443,-0.26756 21.64858,-27.871 48.42867,-61.34098 26.78007,-33.469805 49.34146,-61.704633 50.13643,-62.744067 1.42801,-1.86717 1.44565,-1.321033 1.46931,45.447898 l 0.0241,47.337949 -3.59076,1.02498 c -1.97493,0.56375 -3.76087,1.06256 -3.96875,1.10848 -0.20789,0.0459 -0.94673,0.33545 -1.64185,0.6434 -0.69514,0.30795 -1.71569,0.62831 -2.26787,0.71192 -0.55219,0.0836 -1.34414,0.36106 -1.75993,0.61654 -0.74893,0.46021 -11.04699,3.62256 -13.22917,4.06243 -0.62365,0.12572 -1.21896,0.29713 -1.32292,0.38091 -0.10392,0.0838 -0.52916,0.23738 -0.94493,0.34133 -0.41576,0.10394 -0.92604,0.27403 -1.13392,0.37798 -0.20789,0.10394 -0.63312,0.26001 -0.94494,0.34682 -0.31183,0.0868 -1.46015,0.53006 -2.55185,0.98499 -1.85126,0.77148 -7.14565,2.32493 -9.73238,2.85561 -0.62365,0.12795 -1.21896,0.30119 -1.32292,0.38497 -0.10395,0.0838 -0.52916,0.23738 -0.94493,0.34132 -0.41579,0.10395 -0.92604,0.27404 -1.13392,0.37798 -0.20791,0.10394 -0.71816,0.27403 -1.13396,0.37798 -0.41576,0.10394 -0.92604,0.27403 -1.13392,0.37798 -0.20788,0.10394 -0.6331,0.26002 -0.94493,0.34682 -0.31184,0.0868 -1.46016,0.53007 -2.55183,0.985 -1.85129,0.77148 -7.14568,2.32492 -9.73241,2.8556 -0.62365,0.12796 -1.21896,0.30119 -1.32291,0.38498 -0.10393,0.0838 -0.52917,0.23737 -0.94494,0.34132 -0.41576,0.10394 -0.92604,0.27403 -1.13392,0.37797 -0.20788,0.10395 -0.63312,0.26002 -0.94493,0.34683 -0.31184,0.0868 -1.49038,0.54155 -2.61896,1.01051 -2.10071,0.87292 -9.62691,3.14864 -11.83618,3.57894 -0.67699,0.13186 -1.31594,0.30829 -1.41986,0.39208 -0.10396,0.0838 -0.52917,0.23738 -0.94496,0.34132 -0.41577,0.10394 -0.92604,0.27403 -1.13393,0.37798 -0.20788,0.10394 -0.63309,0.26089 -0.94493,0.34877 -0.31184,0.0879 -1.07723,0.38742 -1.7009,0.66566 -2.92783,1.30617 -12.89087,4.06176 -13.12384,3.6298 z"
       id="path6312"
       inkscape:connector-curvature="0" />
    <path
       style="opacity:1;fill:#88aa00;fill-opacity:1;stroke:#000000;stroke-width:3.356;stroke-opacity:1;paint-order:stroke markers fill;stroke-miterlimit:4;stroke-dasharray:none"
       d="m 7.7095065,239.01469 v -44.1025 l 5.1026385,-0.20993 c 2.806445,-0.11546 11.035997,-0.70242 18.287868,-1.30435 9.108916,-0.75608 13.336385,-0.8499 13.674092,-0.30347 0.479587,0.77599 1.485421,46.00295 1.487611,66.89001 v 10.60903 l -12.661008,4.13204 c -6.964161,2.27263 -12.769138,4.36807 -12.899948,4.65654 -0.130807,0.28848 -0.726114,0.33712 -1.322911,0.10811 -0.596787,-0.22901 -1.085074,-0.0505 -1.085074,0.39672 0,0.44721 -0.510277,0.6173 -1.133944,0.37798 -0.623647,-0.23933 -1.133924,-0.0693 -1.133924,0.37797 0,0.44721 -0.510247,0.6173 -1.133914,0.37798 -0.623644,-0.23933 -1.133924,-0.13145 -1.133924,0.23971 0,0.37116 -0.595304,0.68578 -1.322901,0.69914 -0.727607,0.0134 -2.088318,0.27928 -3.0238014,0.59092 l -1.7008601,0.5666 z"
       id="path6314"
       inkscape:connector-curvature="0" />
    <ellipse
       style="opacity:0.8;fill:url(#radialGradient6344);fill-opacity:1;stroke:none;stroke-width:3.356;stroke-opacity:1;paint-order:stroke markers fill;stroke-miterlimit:4;stroke-dasharray:none"
       id="path6334"
       cx="106.96728"
       cy="148.83334"
       rx="99.439583"
       ry="133.83542" />
    <text
       xml:space="preserve"
       style="font-style:normal;font-variant:normal;font-weight:normal;font-stretch:normal;font-size:64.52494049px;line-height:1.25;font-family:Comfortaa;-inkscape-font-specification:Comfortaa;letter-spacing:0px;word-spacing:0px;fill:#000000;fill-opacity:1;stroke:none;stroke-width:3.356;stroke-miterlimit:4;stroke-dasharray:none"
       x="39.88319"
       y="182.80537"
       id="text6350"
       transform="scale(0.95738911,1.0445074)"><tspan
         sodipodi:role="line"
         id="tspan6348"
         x="39.88319"
         y="182.80537"
         style="font-style:normal;font-variant:normal;font-weight:normal;font-stretch:normal;font-size:112.02246857px;font-family:'Cambria Math';-inkscape-font-specification:'Cambria Math';stroke-width:3.356;stroke-miterlimit:4;stroke-dasharray:none">ICS</tspan></text>
  </g>
</svg>
