<?xml version="1.0" encoding="UTF-8" standalone="no"?>
<!-- Created with Inkscape (http://www.inkscape.org/) -->

<svg
   xmlns:osb="http://www.openswatchbook.org/uri/2009/osb"
   xmlns:dc="http://purl.org/dc/elements/1.1/"
   xmlns:cc="http://creativecommons.org/ns#"
   xmlns:rdf="http://www.w3.org/1999/02/22-rdf-syntax-ns#"
   xmlns:svg="http://www.w3.org/2000/svg"
   xmlns="http://www.w3.org/2000/svg"
   xmlns:xlink="http://www.w3.org/1999/xlink"
   xmlns:sodipodi="http://sodipodi.sourceforge.net/DTD/sodipodi-0.dtd"
   xmlns:inkscape="http://www.inkscape.org/namespaces/inkscape"
   width="210mm"
   height="297mm"
   viewBox="0 0 210 297"
   version="1.1"
   id="svg8"
   sodipodi:docname="logoICS2.svg"
   inkscape:version="0.92.4 (5da689c313, 2019-01-14)">
  <defs
     id="defs2">
    <linearGradient
       inkscape:collect="always"
       id="linearGradient4823">
      <stop
         style="stop-color:#000000;stop-opacity:1;"
         offset="0"
         id="stop4819" />
      <stop
         style="stop-color:#000000;stop-opacity:0;"
         offset="1"
         id="stop4821" />
    </linearGradient>
    <linearGradient
       id="linearGradient4811"
       osb:paint="solid">
      <stop
         style="stop-color:#000000;stop-opacity:1;"
         offset="0"
         id="stop4809" />
    </linearGradient>
    <marker
       inkscape:stockid="Arrow1Lstart"
       orient="auto"
       refY="0.0"
       refX="0.0"
       id="Arrow1Lstart"
       style="overflow:visible"
       inkscape:isstock="true">
      <path
         id="path6541"
         d="M 0.0,0.0 L 5.0,-5.0 L -12.5,0.0 L 5.0,5.0 L 0.0,0.0 z "
         style="fill-rule:evenodd;stroke:none;stroke-width:1pt;stroke-opacity:1;fill:#88aa00;fill-opacity:1"
         transform="scale(0.8) translate(12.5,0)" />
    </marker>
    <linearGradient
       inkscape:collect="always"
       id="linearGradient6340">
      <stop
         style="stop-color:#88aa00;stop-opacity:1;"
         offset="0"
         id="stop6336" />
      <stop
         style="stop-color:#88aa00;stop-opacity:0;"
         offset="1"
         id="stop6338" />
    </linearGradient>
    <inkscape:perspective
       sodipodi:type="inkscape:persp3d"
       inkscape:vp_x="101.18433 : 133.24364 : 1"
       inkscape:vp_y="0 : 1084.834 : 0"
       inkscape:vp_z="371.54387 : 133.24364 : 1"
       inkscape:persp3d-origin="236.3641 : 79.544363 : 1"
       id="perspective3717" />
    <radialGradient
       inkscape:collect="always"
       xlink:href="#linearGradient6340"
       id="radialGradient6344"
       cx="589.26489"
       cy="108.0119"
       fx="589.26489"
       fy="108.0119"
       r="160.01622"
       gradientTransform="matrix(0.62194857,0,0,0.83715293,-259.5252,58.41086)"
       gradientUnits="userSpaceOnUse" />
    <filter
       inkscape:collect="always"
       style="color-interpolation-filters:sRGB"
       id="filter6520"
       x="-0.052830195"
       width="1.1056604"
       y="-0.038290005"
       height="1.07658">
      <feGaussianBlur
         inkscape:collect="always"
         stdDeviation="4.5062635"
         id="feGaussianBlur6522" />
    </filter>
    <radialGradient
       inkscape:collect="always"
       xlink:href="#linearGradient4823"
       id="radialGradient4827"
       cx="106.96728"
       cy="148.83334"
       fx="106.96728"
       fy="148.83334"
       r="101.11758"
       gradientTransform="matrix(1,0,0,1.3401568,0,-50.626678)"
       gradientUnits="userSpaceOnUse" />
    <linearGradient
       inkscape:collect="always"
       xlink:href="#linearGradient6340"
       id="linearGradient4845"
       x1="-6.8852873"
       y1="149.45146"
       x2="219.45789"
       y2="149.45146"
       gradientUnits="userSpaceOnUse" />
  </defs>
  <sodipodi:namedview
     id="base"
     pagecolor="#ffffff"
     bordercolor="#666666"
     borderopacity="1.0"
     inkscape:pageopacity="0.0"
     inkscape:pageshadow="2"
     inkscape:zoom="0.98994949"
     inkscape:cx="366.34011"
     inkscape:cy="277.3301"
     inkscape:document-units="mm"
     inkscape:current-layer="layer3"
     showgrid="false"
     inkscape:window-width="1920"
     inkscape:window-height="1001"
     inkscape:window-x="2391"
     inkscape:window-y="-9"
     inkscape:window-maximized="1" />
  <metadata
     id="metadata5">
    <rdf:RDF>
      <cc:Work
         rdf:about="">
        <dc:format>image/svg+xml</dc:format>
        <dc:type
           rdf:resource="http://purl.org/dc/dcmitype/StillImage" />
        <dc:title></dc:title>
      </cc:Work>
    </rdf:RDF>
  </metadata>
  <g
     inkscape:groupmode="layer"
     id="layer5"
     inkscape:label="Capa 4"
     style="opacity:0.4">
    <rect
       style="opacity:0.11000001;fill:#ffffff;fill-opacity:1;stroke:none;stroke-width:3.35599995;stroke-miterlimit:4;stroke-dasharray:none;stroke-opacity:1;paint-order:stroke markers fill"
       id="rect6836"
       width="204.71309"
       height="282.45053"
       x="3.9297442"
       y="8.2261906" />
    <path
       style="opacity:1;fill:#ffffff;fill-opacity:1;stroke:none;stroke-width:36.24026871;stroke-miterlimit:4;stroke-dasharray:none;stroke-opacity:1;paint-order:stroke markers fill"
       d="M 42.938999,395.96607 C 42.407828,72.112076 42.43648,70.310232 48.209211,64.537501 c 5.770772,-5.770772 7.814452,-5.804287 353.932889,-5.804287 401.50603,0 356.856,-4.046125 359.62668,32.588871 0.90252,11.933265 0.71483,21.696845 -0.41705,21.696845 -1.13189,0 -9.35317,-5.58635 -18.26955,-12.41411 -33.86054,-25.928963 -57.84314,-40.285741 -62.44605,-37.382297 -3.42549,2.160745 -80.28835,142.071407 -84.64823,154.082117 -0.57043,1.57143 -7.18194,-2.28571 -14.69223,-8.57143 -38.61303,-32.31708 -71.98471,-51.16139 -111.70886,-63.07972 -21.81323,-6.54456 -31.03448,-7.70194 -62.71617,-7.87164 -41.52728,-0.22244 -62.08374,3.68301 -97.92803,18.60503 -62.2422,25.91149 -122.56444,85.01502 -162.77786,159.48919 -53.935615,99.88732 -71.810492,237.6424 -46.840152,360.97977 l 4.954852,24.47377 -28.20426,10.13038 c -15.512345,5.57171 -29.193779,10.13037 -30.403189,10.13037 -1.20941,0 -2.439261,-146.53092 -2.733002,-325.62429 z"
       id="path6838"
       inkscape:connector-curvature="0"
       transform="scale(0.26458333)" />
  </g>
  <g
     inkscape:groupmode="layer"
     id="layer4"
     inkscape:label="Capa 3"
     style="display:inline;opacity:1">
    <rect
       style="opacity:0.11000001;fill:#ccff00;fill-opacity:1;stroke:none;stroke-width:3.35599995;stroke-miterlimit:4;stroke-dasharray:none;stroke-opacity:1;paint-order:stroke markers fill"
       id="rect6539"
       width="204.71309"
       height="282.45053"
       x="3.9297445"
       y="8.2261906" />
    <path
       style="opacity:1;fill:#ffffff;fill-opacity:1;stroke:none;stroke-width:12.81287003;stroke-miterlimit:4;stroke-dasharray:none;stroke-opacity:1;paint-order:stroke markers fill"
       d="m 42.784398,679.87812 c 0.663108,-48.02006 0.662465,-92.94624 -0.0056,-394.21203 C 42.242451,43.83091 41.458989,65.633762 50.855231,60.907146 l 5.020314,-2.525382 H 401.85279 747.83004 l 4.71184,2.177827 c 7.7322,3.573857 8.22004,5.432312 8.66479,33.008994 0.27375,16.974595 0.0876,20.893765 -0.96277,20.264355 -0.7162,-0.42918 -7.43886,-5.38815 -14.93924,-11.01995 -15.93164,-11.962546 -41.12115,-29.723507 -50.50763,-35.612592 -11.65219,-7.310599 -13.95802,-6.899704 -20.04924,3.572747 -3.97846,6.840023 -50.3541,93.586825 -69.94676,130.837175 l -10.51418,19.98996 -6.31345,-6.61465 c -3.4724,-3.63806 -6.31345,-6.37219 -6.31345,-6.07586 0,0.29634 -1.47735,-0.80155 -3.283,-2.43974 -6.48897,-5.88719 -8.49287,-7.51021 -19.44544,-15.74948 -16.88372,-12.7011 -37.80377,-25.50792 -39.27087,-24.04083 -0.34658,0.34659 -0.63015,0.10907 -0.63015,-0.52782 0,-1.47456 -7.82626,-5.51645 -9.12602,-4.71316 -0.53652,0.33159 -0.97551,0.0947 -0.97551,-0.52649 0,-0.62116 -0.45457,-0.84845 -1.01015,-0.50508 -0.55558,0.34337 -1.01015,0.2271 -1.01015,-0.25836 0,-1.23462 -7.00406,-4.44797 -8.1506,-3.73937 -0.51743,0.31979 -0.94077,0.16899 -0.94077,-0.33511 0,-1.17275 -8.07506,-4.37649 -9.23075,-3.66224 -0.47892,0.29599 -0.87078,0.14084 -0.87078,-0.34479 0,-1.95548 -32.19701,-11.19202 -44.95179,-12.89557 -21.88216,-2.92261 -49.89522,-3.33906 -67.68022,-1.00615 -14.65654,1.92255 -23.67032,3.53235 -26.76904,4.78079 -1.38896,0.55959 -3.88909,1.22674 -5.55584,1.48254 -11.66651,1.7905 -59.09393,21.46067 -59.09393,24.50877 0,0.40107 -0.56821,0.7339 -1.26269,0.73961 -1.64118,0.0135 -12.90312,6.9153 -25.00127,15.32182 -22.48698,15.62532 -48.58909,40.3907 -67.79476,64.3229 -9.99876,12.45946 -26.78806,36.35716 -27.34853,38.92759 -0.17387,0.79739 -0.86795,1.906 -1.54239,2.46359 -1.66622,1.37753 -11.68947,18.88068 -11.71607,20.45925 -0.0117,0.69448 -0.38427,1.26269 -0.8279,1.26269 -0.95472,0 -15.01911,28.40754 -15.01911,30.33592 0,0.72865 -0.671,2.06625 -1.4911,2.97245 -0.8201,0.9062 -1.64449,2.6528 -1.83198,3.88132 -0.18749,1.22851 -0.8802,2.77299 -1.53936,3.43215 -0.65916,0.65917 -1.19848,1.70404 -1.19848,2.32194 0,0.6179 -0.90914,3.00516 -2.02031,5.30501 -1.11116,2.29985 -2.0203,4.8096 -2.0203,5.57722 0,0.76761 -0.34093,1.73659 -0.75761,2.15328 -0.41669,0.41669 -0.79688,1.06066 -0.84486,1.43104 -0.048,0.3704 -0.35364,1.35529 -0.67923,2.18867 -0.32559,0.83338 -1.36926,4.01536 -2.31926,7.07107 -0.95,3.05571 -2.06217,6.01041 -2.47148,6.56599 -0.82426,1.11881 -3.49668,11.89232 -3.10415,12.51397 0.13619,0.21567 -0.16213,0.67024 -0.66293,1.01015 -1.15543,0.78423 -4.40858,12.27266 -3.76849,13.30835 0.26315,0.42579 0.0801,0.92663 -0.40676,1.11299 -0.48687,0.18635 -2.50642,7.15734 -4.48788,15.4911 -11.83807,49.78932 -16.661207,94.95414 -15.53384,145.46197 0.559059,25.04673 2.165549,49.78077 3.444522,53.03301 0.327734,0.83337 0.501325,2.09621 0.385758,2.8063 -0.286787,1.76215 3.749049,29.05031 5.038001,34.06426 0.571303,2.22234 1.065646,4.72247 1.098543,5.55584 0.03289,0.83338 0.665252,4.24264 1.405236,7.57615 1.82118,8.20412 2.67558,12.83331 2.70338,14.64721 0.0128,0.83337 0.35746,1.9698 0.76596,2.52538 0.4085,0.55558 0.61405,1.80565 0.45677,2.77792 -0.15728,0.97227 0.12838,1.76777 0.6348,1.76777 0.50643,0 0.92077,0.62566 0.92077,1.39036 0,0.88182 -4.895532,3.05223 -13.384518,5.93392 -7.361486,2.49895 -20.779812,7.10083 -29.818502,10.22639 -9.038689,3.12555 -17.117056,5.68283 -17.951927,5.68283 -1.335843,0 -1.447245,-5.12009 -0.928595,-42.67894 z m 1.187767,-242.94169 c -0.231451,-1.52785 -0.42082,-0.27779 -0.42082,2.77792 0,3.05571 0.189369,4.30578 0.42082,2.77792 0.23145,-1.52785 0.23145,-4.02798 0,-5.55584 z"
       id="path856"
       inkscape:connector-curvature="0"
       transform="scale(0.26458333)" />
    <path
       style="opacity:1;fill:#ffffff;fill-opacity:1;stroke:none;stroke-width:12.81287003;stroke-miterlimit:4;stroke-dasharray:none;stroke-opacity:1;paint-order:stroke markers fill"
       d="m 40.196158,698.58519 c -0.284837,-323.60678 0.230771,-626.620637 1.07157,-629.743126 1.632624,-6.063102 5.184741,-9.454208 11.867091,-11.32918 5.418597,-1.520381 34.073829,-1.656501 348.717971,-1.656501 314.64415,0 343.29938,0.13612 348.71798,1.656501 6.65177,1.866394 10.18602,5.219568 11.86203,11.254314 0.57383,2.066187 1.04588,13.635376 1.04897,25.709311 l 0.006,21.952611 -15.90991,-11.9514 C 715.66441,80.504834 690.1803,63.36781 684.86211,62.304174 c -5.75218,-1.150437 -4.09189,-3.969845 -62.82703,106.689296 -14.00728,26.39023 -25.64471,48.17639 -25.86093,48.41368 -0.21623,0.23729 -1.86575,-0.89819 -3.6656,-2.52327 l -3.27246,-2.9547 3.15898,3.53343 c 1.73744,1.94337 2.98811,3.98798 2.77926,4.54356 -0.20885,0.55559 -4.58509,-3.08235 -9.72498,-8.0843 -26.40297,-25.69441 -64.40755,-49.65258 -98.23867,-61.92987 -55.88764,-20.28159 -117.16714,-19.38556 -172.23101,2.51837 -89.00905,35.40701 -161.7326,120.35854 -199.55381,233.10747 -32.171967,95.90793 -37.397536,203.3963 -14.68612,302.08896 3.59251,15.61126 4.64297,13.90695 -12.213336,19.81533 C 66.005558,715.416 45.726585,722.28229 42.9961,722.9383 l -2.777919,0.6674 z m 3.794982,-85.88221 c -0.20809,-2.63903 -0.378345,-0.47983 -0.378345,4.79822 0,5.27805 0.170255,7.43725 0.378345,4.79822 0.20809,-2.63902 0.20809,-6.95742 0,-9.59644 z m -0.01898,-35.35534 c -0.231451,-1.52786 -0.42082,-0.2778 -0.42082,2.77792 0,3.05571 0.189369,4.30577 0.42082,2.77792 0.23145,-1.52786 0.23145,-4.02799 0,-5.55584 z m 41.382777,2.58851 c -0.322467,-0.80583 -0.56183,-0.56647 -0.610301,0.61031 -0.04386,1.06486 0.194887,1.66148 0.530553,1.32582 0.335664,-0.33566 0.371552,-1.20693 0.07975,-1.93613 z m 0,-36.36549 c -0.322467,-0.80583 -0.56183,-0.56647 -0.610301,0.6103 -0.04386,1.06487 0.194887,1.66149 0.530553,1.32583 0.335664,-0.33566 0.371552,-1.20693 0.07975,-1.93613 z M 43.99114,502.59635 c -0.20809,-2.63903 -0.378345,-0.47982 -0.378345,4.79822 0,5.27805 0.170255,7.43725 0.378345,4.79823 0.20809,-2.63903 0.20809,-6.95743 0,-9.59645 z M 207.02221,224.8044 c 1.25649,-1.60217 1.22077,-1.63789 -0.3814,-0.3814 -0.97227,0.76252 -1.76776,1.55801 -1.76776,1.76777 0,0.8314 0.82952,0.29629 2.14916,-1.38637 z"
       id="path858"
       inkscape:connector-curvature="0"
       transform="scale(0.26458333)" />
    <path
       style="opacity:1;fill:#008000;fill-opacity:1;stroke:none;stroke-width:12.81287003;stroke-miterlimit:4;stroke-dasharray:none;stroke-opacity:1;paint-order:stroke markers fill"
       d="m 43.196836,707.15224 c -0.104433,-31.05635 -0.09889,-66.51074 0.02145,-137.12821 0.06769,-39.72425 0.113332,-167.91261 0.10142,-284.86302 C 43.295545,47.962461 42.730253,66.310437 50.20562,61.66158 l 3.64962,-2.269663 h 347.99755 c 334.35906,0 348.12933,0.07191 351.35993,1.834757 6.28474,3.429412 7.19678,7.375519 7.22204,31.247739 0.0122,11.528367 -0.19368,20.960667 -0.45752,20.960667 -0.26385,0 -6.74145,-4.69943 -14.39468,-10.44317 -16.09024,-12.075724 -41.27127,-29.822259 -50.78553,-35.791512 -11.65322,-7.311241 -13.96386,-6.899275 -20.0389,3.572747 -4.18417,7.21259 -31.88488,58.901885 -60.75728,113.372615 -9.5709,18.05647 -17.58574,33.0241 -17.81074,33.26139 -0.22501,0.23729 -1.88171,-0.89819 -3.68156,-2.52327 l -3.27246,-2.9547 3.15898,3.53343 c 1.73744,1.94337 2.98811,3.98798 2.77926,4.54356 -0.20885,0.55559 -4.58509,-3.08235 -9.72498,-8.0843 C 559.04638,186.22746 521.0418,162.26929 487.21068,149.992 431.32304,129.71041 370.04354,130.60644 314.97967,152.51037 225.97062,187.91738 153.24707,272.86891 115.42586,385.61784 83.264714,481.4935 78.014464,589.54183 100.7469,687.70576 c 2.37506,10.2561 2.77203,13.38368 1.81316,14.2853 -0.67521,0.63489 -6.682474,3.04015 -13.349481,5.34503 -37.246469,12.87658 -44.182091,15.22097 -45.029533,15.22097 -0.52675,0 -0.954945,-6.7021 -0.98421,-15.40482 z M 85.354942,579.93615 c -0.322467,-0.80583 -0.56183,-0.56647 -0.610301,0.61031 -0.04386,1.06486 0.194887,1.66148 0.530553,1.32582 0.335664,-0.33566 0.371552,-1.20693 0.07975,-1.93613 z m 0,-36.36549 c -0.322467,-0.80583 -0.56183,-0.56647 -0.610301,0.6103 -0.04386,1.06487 0.194887,1.66149 0.530553,1.32583 0.335664,-0.33566 0.371552,-1.20693 0.07975,-1.93613 z M 207.02221,224.8044 c 1.25649,-1.60217 1.22077,-1.63789 -0.3814,-0.3814 -0.97227,0.76252 -1.76776,1.55801 -1.76776,1.76777 0,0.8314 0.82952,0.29629 2.14916,-1.38637 z"
       id="path860"
       inkscape:connector-curvature="0"
       transform="scale(0.26458333)" />
    <path
       style="opacity:1;fill:#008000;fill-opacity:1;stroke:none;stroke-width:12.81287003;stroke-miterlimit:4;stroke-dasharray:none;stroke-opacity:1;paint-order:stroke markers fill"
       d="m 43.891019,716.86024 c -0.91964,-6.7095 -0.64789,-556.23217 0.299903,-606.45562 0.468399,-24.820391 1.220682,-42.973441 1.84415,-44.500481 0.601929,-1.474287 2.718857,-3.326663 4.941675,-4.324114 3.663804,-1.644069 24.012433,-1.72857 351.930763,-1.461459 335.1461,0.272999 348.14652,0.351916 350.85984,2.129841 1.54976,1.015486 3.44539,3.348524 4.21252,5.184529 1.67802,4.01605 2.96061,33.128194 1.7686,40.143474 l -0.80675,4.74792 -21.81884,-15.859602 c -24.42752,-17.755795 -43.09703,-30.472283 -48.5668,-33.080637 -5.00435,-2.386408 -8.20947,-1.338799 -11.76376,3.845049 -1.61576,2.356535 -11.69288,20.649079 -22.39362,40.6501 -31.05638,58.04829 -55.77766,104.0121 -56.17988,104.45422 -0.2044,0.22467 -4.35677,-3.43318 -9.22747,-8.12855 -22.73321,-21.91487 -53.44761,-42.68026 -82.13263,-55.52818 -56.36635,-25.24631 -119.2792,-29.12375 -176.37563,-10.87036 -55.60349,17.77611 -106.05512,53.95831 -147.01375,105.43331 -50.78887,63.82921 -85.121617,147.80043 -97.677864,238.90108 -4.166586,30.23026 -4.662644,38.98142 -4.63809,81.82235 0.02141,37.34329 0.278878,44.07247 2.357696,61.61931 2.576738,21.74967 7.856318,52.67287 11.610548,68.00452 l 2.429273,9.92075 -2.654933,1.06101 c -7.085539,2.83166 -47.99769,16.97821 -49.101363,16.97821 -0.734647,0 -1.529406,-1.95671 -1.903588,-4.68667 z"
       id="path862"
       inkscape:connector-curvature="0"
       transform="scale(0.26458333)" />
    <path
       style="opacity:1;fill:#008000;fill-opacity:1;stroke:none;stroke-width:12.81287003;stroke-miterlimit:4;stroke-dasharray:none;stroke-opacity:1;paint-order:stroke markers fill"
       d="m 43.897003,717.75884 c -0.926433,-5.6049 -0.652611,-569.35868 0.297452,-612.40498 0.460507,-20.865112 1.265197,-37.990175 1.853703,-39.449721 0.597767,-1.482515 2.693366,-3.321096 4.928589,-4.324114 3.663804,-1.644069 24.012433,-1.72857 351.930763,-1.461459 335.1461,0.272999 348.14652,0.351916 350.85984,2.129841 4.68449,3.069539 5.67389,7.164846 6.3334,26.21484 0.33124,9.567628 0.20282,18.887273 -0.28537,20.710333 l -0.88761,3.31464 -19.691,-14.341445 c -24.62541,-17.935304 -46.78543,-33.015996 -51.26498,-34.88767 -1.88352,-0.786985 -4.31573,-1.148043 -5.40491,-0.80235 -4.52915,1.437496 -5.09648,2.399651 -40.78083,69.161065 -33.71595,63.07879 -43.37966,80.76869 -44.1352,80.79165 -0.37214,0.0113 -3.09955,-2.52598 -6.06091,-5.63841 -6.27298,-6.59297 -21.09435,-19.32204 -21.6395,-18.58469 -0.20537,0.27779 -1.01117,-0.40406 -1.79065,-1.51523 -1.39222,-1.98466 -10.7435,-9.16015 -10.7435,-8.24379 0,0.25743 -1.30933,-0.73709 -2.90962,-2.21007 -3.63463,-3.34547 -23.36879,-15.64175 -25.10326,-15.64175 -0.70485,0 -1.28155,-0.36898 -1.28155,-0.81997 0,-1.15313 -22.34325,-12.02043 -23.38736,-11.37513 -0.47097,0.29107 -0.8563,0.10789 -0.8563,-0.40708 0,-1.03426 -14.19781,-6.65065 -26.76904,-10.58932 -11.65368,-3.6512 -29.49868,-7.47488 -43.23576,-9.2642 -13.1474,-1.71251 -44.78766,-1.97715 -54.74904,-0.45793 -3.3335,0.5084 -6.74277,0.96588 -7.57614,1.01662 -4.60097,0.28013 -19.82941,3.22018 -20.78431,4.01267 -0.61592,0.51118 -1.37817,0.67111 -1.69387,0.3554 -0.60845,-0.60844 -13.0285,2.56536 -13.88732,3.54874 -0.27779,0.31808 -0.95964,0.57833 -1.51522,0.57833 -2.37487,0 -13.63706,3.93538 -13.63706,4.76524 0,0.50041 -0.41161,0.65545 -0.91468,0.34454 -1.26172,-0.77979 -20.57769,7.43079 -33.20788,14.11558 -12.67777,6.70998 -26.4866,15.46447 -26.4866,16.79195 0,0.53487 -0.38043,0.73738 -0.84539,0.45001 -1.28628,-0.79496 -25.00222,17.39203 -34.38886,26.3717 -4.56562,4.36766 -8.44711,7.79521 -8.62555,7.61678 -1.12169,-1.12169 -32.13786,34.91998 -43.68437,50.76251 -14.33874,19.67364 -39.75723,63.09389 -36.9684,63.15 0.42289,0.008 0.21571,0.36698 -0.4604,0.79658 -2.33183,1.48171 -19.95029,42.05461 -18.95864,43.65914 0.2764,0.44722 0.14075,0.96559 -0.30143,1.15194 -1.15439,0.48649 -5.37209,11.98255 -4.75972,12.97339 0.28211,0.45647 0.10197,0.98239 -0.4003,1.16874 -1.13954,0.42278 -7.31176,20.01747 -6.64515,21.09606 0.26802,0.43367 0.0999,0.94095 -0.37354,1.1273 -1.92258,0.7567 -14.197822,54.32424 -15.910401,69.4309 -0.289874,2.55698 -1.375011,10.91428 -2.411417,18.57177 -3.398826,25.11229 -4.358883,45.94266 -3.787429,82.17594 0.403448,25.58088 1.078891,38.79783 2.677546,52.39377 2.416959,20.55529 7.909867,52.67156 11.5494,67.52776 l 2.437362,9.94905 -3.166853,1.31921 c -6.099583,2.54088 -47.25255,16.66339 -48.557117,16.66339 -0.737684,0 -1.593037,-1.66706 -1.943618,-3.78807 z"
       id="path864"
       inkscape:connector-curvature="0"
       transform="scale(0.26458333)" />
    <path
       style="opacity:1;fill:#008000;fill-opacity:1;stroke:none;stroke-width:12.81287003;stroke-miterlimit:4;stroke-dasharray:none;stroke-opacity:1;paint-order:stroke markers fill"
       d="m 43.879984,718.39019 c -0.34724,-1.7362 -0.604818,-133.90204 -0.572395,-293.70186 0.05417,-266.96434 0.656171,-352.355488 2.527579,-358.523551 0.386894,-1.27518 2.445218,-3.207097 4.574053,-4.293148 3.81927,-1.948446 8.36973,-1.973218 343.069569,-1.867594 186.55943,0.05887 343.84895,0.3998 349.53226,0.757614 13.64913,0.859332 15.03894,2.07023 16.44845,14.330963 1.12184,9.758381 1.21104,32.895596 0.13732,35.616686 -0.61331,1.55431 -3.44078,-0.1528 -19.37443,-11.697459 -26.50935,-19.207242 -46.56887,-32.779688 -51.99353,-35.179275 -4.33832,-1.919046 -4.84376,-1.950889 -7.13513,-0.449526 -3.82798,2.508184 -6.01929,6.362947 -45.39322,79.85154 -19.35168,36.11852 -36.84999,68.36669 -37.49402,69.09888 -0.19762,0.22467 -4.34237,-3.41865 -9.21054,-8.09627 -13.19571,-12.67919 -37.68528,-31.83185 -39.0091,-30.50802 -0.35849,0.35848 -0.65178,0.14898 -0.65178,-0.46555 0,-1.25146 -17.97675,-12.68221 -19.95052,-12.68579 -0.69448,-0.001 -1.26269,-0.33045 -1.26269,-0.73153 0,-1.03607 -13.78772,-8.04694 -26.26396,-13.35488 -53.491,-22.75738 -114.556,-26.28377 -168.1904,-9.71266 -12.55979,3.88052 -28.78935,10.03652 -28.78935,10.92001 0,0.36395 -0.92788,0.73161 -2.06194,0.81704 -2.38483,0.17964 -27.23806,12.90017 -28.75137,14.7157 -0.5576,0.66895 -1.61049,1.33996 -2.33977,1.49111 -4.68486,0.97109 -36.80008,24.90063 -48.26133,35.96027 -4.15624,4.01061 -7.70753,7.1413 -7.89174,6.95708 -0.18423,-0.18422 -5.43267,5.2116 -11.66323,11.99071 -22.81429,24.82293 -39.94559,48.05851 -56.1348,76.13693 -7.55959,13.11131 -21.76745,41.99351 -21.14949,42.99339 0.26368,0.42664 0.0583,0.92816 -0.4563,1.11451 -1.25059,0.45283 -11.3198,25.08454 -10.67851,26.12218 0.2764,0.44722 0.14075,0.96559 -0.30143,1.15194 -1.15439,0.48649 -5.37209,11.98255 -4.75972,12.97339 0.28211,0.45647 0.10197,0.98239 -0.4003,1.16874 -1.13954,0.42278 -7.31176,20.01747 -6.64515,21.09606 0.26802,0.43367 0.0377,0.94095 -0.51175,1.1273 -0.54949,0.18635 -1.14982,1.72308 -1.33407,3.41496 -0.18425,1.69188 -0.61677,3.53205 -0.96115,4.08926 -1.919387,3.10565 -12.124876,49.99985 -13.476971,61.92668 -0.289874,2.55698 -1.375011,10.91428 -2.411417,18.57177 -3.398826,25.11229 -4.358883,45.94266 -3.787429,82.17594 0.556218,35.26732 2.160305,54.54279 6.882077,82.69834 2.529256,15.08176 5.831455,31.83279 6.671039,33.84011 0.348568,0.83338 0.584561,1.78726 0.524429,2.11973 -0.06013,0.33247 0.509804,2.95152 1.266523,5.82011 1.248667,4.73348 1.216531,5.30088 -0.347635,6.138 -2.70072,1.44538 -48.55212,17.23689 -50.048135,17.23689 -0.735488,0 -1.621357,-1.42052 -1.968597,-3.15672 z"
       id="path866"
       inkscape:connector-curvature="0"
       transform="scale(0.26458333)" />
    <path
       style="opacity:1;fill:#008000;fill-opacity:1;stroke:none;stroke-width:12.81287003;stroke-miterlimit:4;stroke-dasharray:none;stroke-opacity:1;paint-order:stroke markers fill"
       d="m 43.885323,719.27407 c -0.948767,-3.54031 -0.644687,-584.20553 0.324669,-619.981127 0.474195,-17.500893 1.189796,-32.634664 1.590225,-33.630602 0.400429,-0.995938 2.472154,-2.70057 4.603834,-3.788072 3.826008,-1.951884 8.251144,-1.976146 344.589969,-1.889317 187.3928,0.04838 344.6833,0.39127 349.53444,0.761982 11.63818,0.889365 13.4884,2.5442 14.88586,13.313862 1.13162,8.721088 1.24937,33.943104 0.17122,36.680674 -0.63514,1.61274 -2.35557,0.67454 -13.31352,-7.26026 -19.80898,-14.343947 -46.35285,-32.796165 -53.01014,-36.850494 -3.63326,-2.212682 -7.37354,-3.703265 -9.2925,-3.703265 -5.15777,0 -4.54153,-0.998643 -38.64741,62.629459 -30.5111,56.92166 -46.89154,86.87077 -47.51399,86.87206 -0.28572,5.8e-4 -4.37684,-3.76817 -9.09137,-8.37502 -9.39923,-9.1845 -27.05416,-23.59163 -28.41919,-23.19119 -0.47346,0.1389 -0.86083,-0.12498 -0.86083,-0.58637 0,-0.4614 -2.04556,-2.30793 -4.54569,-4.10338 -2.50012,-1.79546 -4.54568,-3.00893 -4.54568,-2.69663 0,0.31232 -0.87563,-0.30778 -1.94584,-1.37799 -4.24849,-4.24848 -37.15382,-22.45263 -42.50087,-23.51266 -0.83338,-0.16521 -1.76771,-0.63867 -2.07629,-1.05213 -0.83933,-1.12457 -20.42692,-8.34884 -30.77528,-11.3505 -12.25984,-3.55611 -32.84742,-7.65786 -40.72704,-8.11422 -3.54286,-0.20519 -6.69554,-0.62704 -7.00594,-0.93745 -0.31041,-0.3104 -9.10214,-0.56437 -19.53718,-0.56437 -35.7038,0 -65.82347,6.03771 -98.57816,19.76071 -28.62758,11.99389 -62.09121,33.67155 -83.30237,53.96308 -4.40568,4.21467 -8.15633,7.51704 -8.33477,7.33861 -0.55037,-0.55037 -22.54047,23.77727 -30.74135,34.00916 -9.36866,11.68888 -13.54079,17.25843 -12.92824,17.25843 0.25117,0 -0.86038,1.40992 -2.47012,3.13316 -1.60975,1.72323 -2.70387,3.49387 -2.43139,3.93475 0.27248,0.44088 -0.21263,1.07332 -1.07804,1.4054 -0.8654,0.33208 -1.31997,1.01394 -1.01015,1.51523 0.30982,0.50129 -0.181,1.19706 -1.0907,1.54613 -0.90971,0.34909 -1.36873,0.91999 -1.02006,1.26867 0.34868,0.34867 -0.033,1.13347 -0.8482,1.74398 -4.34309,3.25267 -36.9905,63.97937 -38.06861,70.81057 -0.17537,1.11116 -0.88706,2.62098 -1.58154,3.35515 -1.10847,1.1718 -1.47042,2.66884 -1.17642,4.86567 0.0475,0.35456 -0.31505,0.92277 -0.80557,1.26269 -1.31601,0.91194 -5.4059,11.31353 -4.82075,12.26032 0.27603,0.44663 0.14008,0.96451 -0.3021,1.15086 -1.15439,0.48649 -5.37209,11.98255 -4.75972,12.97339 0.28211,0.45647 0.10159,0.98239 -0.40116,1.16874 -1.79592,0.66568 -15.926857,50.47946 -16.670408,58.76579 -0.167545,1.86719 -0.548826,3.80387 -0.847289,4.30376 -0.532001,0.89103 -5.589512,28.73951 -5.760344,31.71853 -0.04779,0.83338 -0.955185,7.78046 -2.016435,15.43795 -3.427821,24.73361 -4.407324,45.73542 -3.832601,82.17594 0.539731,34.22199 2.378698,57.09787 6.323207,78.65773 0.81318,4.44467 1.658287,9.44493 1.878014,11.11168 0.742603,5.63305 2.715035,16.15272 3.314549,17.67767 0.327633,0.83338 0.764491,2.81193 0.970797,4.39679 0.206305,1.58486 1.244848,6.27667 2.307874,10.42626 l 1.932774,7.54471 -4.38441,1.87938 c -6.1512,2.63671 -45.849621,16.15896 -47.439238,16.15896 -0.720186,0 -1.583523,-1.02278 -1.918527,-2.27284 z"
       id="path868"
       inkscape:connector-curvature="0"
       transform="scale(0.26458333)" />
    <path
       style="opacity:1;fill:#008000;fill-opacity:1;stroke:none;stroke-width:12.81287003;stroke-miterlimit:4;stroke-dasharray:none;stroke-opacity:1;paint-order:stroke markers fill"
       d="m 43.885323,719.27407 c -0.929992,-3.47026 -0.652982,-590.15256 0.294199,-623.0883 0.49805,-17.318348 1.272139,-29.691937 1.935007,-30.930518 0.607675,-1.135451 2.666628,-2.805561 4.575451,-3.711357 3.187978,-1.512795 31.301974,-1.641049 345.25456,-1.57503 187.98119,0.03953 345.30884,0.392742 349.617,0.784918 10.33092,0.940432 12.40683,2.85786 13.83653,12.78027 1.22364,8.492311 1.36768,35.829957 0.19849,37.672987 -0.60812,0.9586 -6.73641,-2.92544 -22.9655,-14.555262 -12.17483,-8.72452 -28.26481,-19.902753 -35.75552,-24.840517 -16.95364,-11.175593 -18.74623,-11.383099 -24.3863,-2.822895 -2.01333,3.055712 -16.61906,29.647978 -32.45719,59.093924 -36.28178,67.45437 -45.53648,84.34774 -46.20823,84.34774 -0.29443,0 -4.39268,-3.76923 -9.10721,-8.37608 -8.95204,-8.74753 -26.23605,-22.99221 -27.46877,-22.63848 -0.39277,0.1127 -1.4011,-0.70423 -2.24072,-1.8154 -0.83961,-1.11117 -1.54103,-1.57823 -1.55871,-1.03792 -0.0177,0.5403 -0.74508,-0.0356 -1.61647,-1.27959 -0.87139,-1.24409 -2.00781,-2.00026 -2.52538,-1.68038 -0.51757,0.31987 -0.94104,0.13727 -0.94104,-0.40579 0,-1.12627 -7.18181,-5.81348 -8.33376,-5.43903 -0.41668,0.13544 -0.75761,-0.16652 -0.75761,-0.67102 0,-2.15019 -36.74205,-21.81689 -38.60642,-20.66464 -0.43424,0.26837 -0.78953,0.051 -0.78953,-0.483 0,-1.09974 -6.05246,-3.46911 -6.07638,-2.37873 -0.008,0.38779 -0.35143,0.17703 -0.76205,-0.46834 -1.69522,-2.66437 -45.79679,-15.72354 -47.46516,-14.05517 -0.31011,0.31011 -1.06023,0.16709 -1.66693,-0.31781 -1.47384,-1.17797 -18.39916,-3.50402 -20.27075,-2.78582 -0.81168,0.31146 -1.74445,0.13159 -2.07282,-0.39973 -0.97368,-1.57546 -37.35598,-1.14969 -50.68116,0.5931 -13.26067,1.73435 -30.65923,5.14778 -34.60421,6.78901 -1.41385,0.58821 -2.88587,1.00463 -3.27115,0.92538 -1.17434,-0.24155 -23.0031,7.51469 -32.12944,11.41629 -18.61563,7.95837 -55.55839,29.89813 -55.55839,32.99529 0,0.65992 -0.28635,0.9135 -0.63634,0.56352 -0.89857,-0.89858 -15.38439,10.4906 -24.83661,19.52729 -4.37849,4.186 -8.10298,7.46883 -8.27663,7.29518 -0.74218,-0.74218 -29.59444,31.58553 -29.971,33.58122 -0.10483,0.55558 -0.93383,1.53073 -1.84223,2.167 -2.89146,2.02525 -16.77775,21.67721 -16.44453,23.27239 0.17606,0.84282 -0.11514,1.26339 -0.64711,0.93462 -0.53198,-0.32878 -1.70928,0.53474 -2.61624,1.91893 -0.90695,1.38419 -1.32436,2.51671 -0.92757,2.51671 0.39679,0 -0.0395,0.56821 -0.9695,1.26269 -6.11797,4.56854 -42.79871,75.3467 -43.43652,83.81394 -0.0744,0.98806 -0.44389,1.79649 -0.82101,1.79649 -0.65251,0 -2.24396,4.42103 -2.36359,6.56599 -0.031,0.55558 -0.30589,1.23744 -0.61089,1.51523 -1.1201,1.02015 -4.98814,12.33601 -4.49147,13.13965 0.28211,0.45647 0.0689,0.98239 -0.47375,1.16874 -0.54268,0.18636 -1.11372,1.47524 -1.26899,2.8642 -0.15527,1.38896 -0.66762,2.80693 -1.13856,3.15104 -0.47095,0.34411 -0.92551,1.82114 -1.01015,3.28228 -0.0846,1.46114 -0.44423,2.65695 -0.79909,2.65734 -0.5747,6.3e-4 -2.19631,5.97018 -2.33264,8.58701 -0.0289,0.55558 -0.31541,1.23744 -0.63659,1.51523 -0.62499,0.54056 -6.966074,24.09547 -7.44722,27.66382 -0.158383,1.17462 -0.557276,2.81753 -0.886429,3.65091 -0.848493,2.14829 -6.703214,32.70088 -7.335972,38.28243 -0.289874,2.55698 -1.375011,10.91428 -2.411417,18.57177 -3.86901,28.58626 -4.474624,49.36854 -3.23251,110.927 0.32412,16.06321 9.818206,80.18449 12.998197,87.78739 0.348568,0.83338 0.584561,1.78726 0.524429,2.11973 -0.06013,0.33247 0.516418,2.97659 1.281223,5.87583 l 1.390555,5.27135 -4.72459,2.02796 c -6.233078,2.67547 -45.509878,16.01986 -47.151555,16.01986 -0.703471,0 -1.553134,-1.02278 -1.888138,-2.27284 z"
       id="path870"
       inkscape:connector-curvature="0"
       transform="scale(0.26458333)" />
    <path
       style="opacity:1;fill:#008000;fill-opacity:1;stroke:none;stroke-width:12.81287003;stroke-miterlimit:4;stroke-dasharray:none;stroke-opacity:1;paint-order:stroke markers fill"
       d="m 43.86179,719.94906 c -0.945723,-2.46451 -0.627377,-596.44459 0.33568,-626.32412 0.488167,-15.145712 1.312489,-27.240038 1.93603,-28.405136 0.597241,-1.115954 2.662437,-2.777127 4.589325,-3.691495 3.234461,-1.534852 30.245129,-1.641903 351.820545,-1.394364 294.82418,0.226947 348.73627,0.483538 351.04637,1.670779 5.19626,2.670549 6.17138,6.765218 6.66949,28.00613 0.26105,11.132246 0.0499,20.027076 -0.49861,21.007276 -0.81453,1.45547 -4.93782,-1.13323 -28.66433,-17.996197 -31.27032,-22.224512 -43.46863,-29.894482 -47.54415,-29.894482 -4.54777,0 -2.59909,-3.26498 -44.2037,74.062129 -31.6124,58.75537 -40.83079,75.44045 -41.68039,75.44045 -0.3816,0 -3.11675,-2.54654 -6.07811,-5.65897 -5.17985,-5.44408 -20.73742,-19.08977 -21.76442,-19.08977 -0.27409,0 -2.33187,-1.6927 -4.57284,-3.76155 -2.24098,-2.06887 -4.41873,-3.54882 -4.83944,-3.28881 -0.42073,0.26002 -1.03666,-0.23528 -1.36874,-1.10069 -0.33209,-0.8654 -1.06157,-1.29052 -1.62108,-0.94474 -0.55951,0.3458 -1.01729,0.13911 -1.01729,-0.45931 0,-1.35388 -19.38535,-14.18378 -20.44318,-13.53 -0.42351,0.26174 -0.77002,0.0925 -0.77002,-0.37608 0,-0.46858 -1.36371,-1.65753 -3.03046,-2.6421 -1.66675,-0.98458 -3.03046,-1.50468 -3.03046,-1.1558 0,0.34889 -0.73574,-0.10141 -1.635,-1.00065 -5.38108,-5.38109 -51.03522,-23.92117 -61.80929,-25.10066 -1.54664,-0.16932 -3.25802,-0.58346 -3.80306,-0.92032 -1.78505,-1.10322 -23.01304,-4.91746 -29.58382,-5.31561 -3.53238,-0.21404 -6.67648,-0.64313 -6.98688,-0.95354 -1.24422,-1.24421 -39.00739,-0.49931 -50.43101,0.99477 -31.72,4.14863 -60.8636,13.4182 -89.17144,28.36234 -14.67076,7.74493 -36.67108,22.34741 -35.79779,23.76042 0.42081,0.68089 0.14084,0.93683 -0.70589,0.64532 -1.77201,-0.61005 -14.96565,9.50774 -25.31583,19.41392 -4.35365,4.16688 -7.91382,7.36595 -7.9115,7.10904 0.002,-0.2569 -2.26862,1.77156 -5.04654,4.50771 -2.77792,2.73615 -5.05076,5.34672 -5.05076,5.80127 0,0.45455 -1.57803,2.21198 -3.50675,3.90541 -4.35155,3.82071 -16.59843,18.24784 -16.55054,19.49694 0.0194,0.50563 -0.64714,1.30123 -1.48119,1.76799 -3.45399,1.93295 -31.34543,41.88138 -30.3573,43.48022 0.27348,0.4425 0.0914,0.80454 -0.40464,0.80454 -2.74437,0 -33.31686,60.98352 -34.75141,69.31931 -0.1795,1.04304 -0.62186,2.12373 -0.98302,2.40152 -0.36115,0.27779 -0.81572,1.41421 -1.01015,2.52538 -0.19443,1.11117 -0.602,2.24759 -0.90573,2.52538 -1.15785,1.05899 -5.9556,15.43932 -5.43311,16.28472 0.3018,0.48833 0.0187,0.88787 -0.62911,0.88787 -0.64782,0 -0.91619,0.68186 -0.5964,1.51523 0.3198,0.83338 0.0925,1.51523 -0.50507,1.51523 -0.59759,0 -0.83615,0.65249 -0.53012,1.44996 0.30602,0.79749 0.0855,1.60694 -0.49008,1.79879 -0.57556,0.19186 -1.11823,1.58461 -1.20594,3.09502 -0.0877,1.5104 -0.4474,2.7465 -0.79932,2.74689 -0.35192,3.9e-4 -0.86752,1.02349 -1.14578,2.27356 -0.27826,1.25006 -2.38724,9.09137 -4.686632,17.42513 -3.545141,12.84878 -10.694528,45.08025 -11.091259,50.00255 -0.06717,0.83338 -0.384556,3.10622 -0.705305,5.05076 -2.58439,15.66785 -5.414225,38.05275 -6.193478,48.9924 -0.639718,8.98076 -0.960229,65.62062 -0.483562,85.45377 0.339999,14.14666 8.183913,69.39125 11.532237,81.2214 0.628993,2.22234 1.088908,4.30479 1.02203,4.62766 -0.06688,0.32288 0.727163,3.88674 1.764535,7.91969 l 1.886131,7.33264 -4.451066,1.96891 c -6.259857,2.76903 -45.273518,16.03182 -47.159013,16.03182 -0.856469,0 -1.833135,-0.71902 -2.170368,-1.59785 z"
       id="path872"
       inkscape:connector-curvature="0"
       transform="scale(0.26458333)" />
    <path
       style="opacity:1;fill:#008000;fill-opacity:1;stroke:none;stroke-width:12.81287003;stroke-miterlimit:4;stroke-dasharray:none;stroke-opacity:1;paint-order:stroke markers fill"
       d="m 43.86179,719.94906 c -0.958218,-2.49707 -0.633243,-598.864 0.341862,-627.357547 0.485604,-14.189866 1.342369,-26.273995 1.942305,-27.394984 0.590389,-1.103153 2.64998,-2.753852 4.576868,-3.66822 3.234461,-1.534852 30.245129,-1.641903 351.820545,-1.394364 327.18532,0.251858 348.50965,0.37351 351.4906,2.005198 1.81481,0.993376 3.70304,3.155773 4.41037,5.050763 1.55189,4.157572 2.66456,41.218974 1.31016,43.639154 -0.82746,1.47858 -3.21124,0.10469 -17.55266,-10.11642 -52.64302,-37.518637 -58.53631,-40.900497 -62.76452,-36.017422 -2.47303,2.856049 -8.06492,12.948012 -38.20083,68.942912 -25.45599,47.29924 -41.99878,77.57213 -42.98707,78.66528 -0.18818,0.20815 -5.44259,-4.44586 -11.67646,-10.34224 -6.23387,-5.89638 -11.48359,-10.5714 -11.66605,-10.38894 -0.18246,0.18246 -2.16809,-1.36355 -4.41249,-3.43558 -5.23274,-4.83084 -22.12233,-16.69619 -23.29495,-16.36526 -0.49218,0.13889 -0.89486,-0.14976 -0.89486,-0.64144 0,-1.12049 -5.06228,-4.4935 -6.74393,-4.4935 -0.68769,0 -1.49399,-0.63491 -1.79176,-1.4109 -0.29778,-0.77599 -0.99919,-1.12797 -1.55871,-0.78218 -0.5595,0.34579 -1.01728,0.1205 -1.01728,-0.50066 0,-0.62117 -0.45457,-0.84845 -1.01015,-0.50508 -0.55559,0.34337 -1.01016,0.1863 -1.01016,-0.34903 0,-0.96911 -9.88274,-6.9625 -12.31294,-7.46719 -0.7018,-0.14575 -1.89169,-0.83739 -2.64419,-1.53698 -0.75251,-0.69958 -1.7861,-1.01368 -2.2969,-0.69799 -0.51079,0.31568 -0.92871,0.16077 -0.92871,-0.34425 0,-0.90625 -12.68858,-6.77715 -14.64721,-6.77715 -0.55559,0 -1.27828,-0.3636 -1.60598,-0.808 -1.05665,-1.43291 -23.29642,-8.84906 -35.43896,-11.8176 -14.09912,-3.44688 -32.55397,-6.45651 -35.25678,-5.74971 -1.06837,0.27938 -2.19704,0.0961 -2.50818,-0.40735 -0.71337,-1.15426 -38.27563,-1.04542 -46.40841,0.13447 -3.3335,0.48362 -8.18369,1.11413 -10.77819,1.40113 -22.60095,2.50014 -56.98934,13.932 -82.63466,27.47056 -13.06816,6.89888 -36.39175,22.12908 -36.39175,23.76363 0,0.65992 -0.28635,0.9135 -0.63634,0.56352 -0.8988,-0.89882 -15.39379,10.49801 -24.79142,19.49251 -4.35365,4.16688 -7.91382,7.36595 -7.9115,7.10904 0.002,-0.2569 -2.26862,1.77156 -5.04654,4.50771 -2.77792,2.73615 -5.05076,5.3071 -5.05076,5.71321 0,0.40612 -2.50518,3.1077 -5.56706,6.0035 -3.06188,2.89579 -5.41808,5.41407 -5.23599,5.59615 0.18209,0.1821 -1.85842,2.66318 -4.53446,5.51353 -2.67605,2.85035 -4.86554,5.52176 -4.86554,5.93647 0,0.41473 -1.56962,2.41832 -3.48804,4.45244 -4.40813,4.67398 -19.14582,25.38474 -18.80749,26.43002 0.13926,0.43022 -0.47896,1.19195 -1.37379,1.69273 -0.89484,0.50077 -1.36331,1.33713 -1.04105,1.85857 0.32226,0.52144 0.15682,0.94807 -0.36765,0.94807 -1.18141,0 -4.55312,5.02626 -4.55312,6.7874 0,0.7116 -0.32701,1.29382 -0.72667,1.29382 -0.9775,0 -9.37486,14.21063 -9.37486,15.86482 0,0.71928 -0.34913,1.30777 -0.77585,1.30777 -1.71047,0 -25.37602,49.57425 -26.34026,55.17718 -0.1795,1.04304 -0.69007,2.16463 -1.13458,2.49241 -0.44452,0.32778 -0.88219,1.57784 -0.97258,2.77792 -0.0904,1.20007 -0.48608,2.18195 -0.87929,2.18195 -0.56546,0 -1.91894,4.07412 -2.34912,7.07107 -0.0399,0.27779 -0.43769,1.08042 -0.88405,1.7836 -1.59559,2.51373 -6.68247,18.69519 -6.14863,19.55895 0.2994,0.48444 0.17093,0.8808 -0.28549,0.8808 -0.76175,0 -4.47134,11.46719 -4.88623,15.10449 -0.0981,0.85966 -0.63526,2.69945 -1.19378,4.08841 -1.305999,3.24788 -7.474805,28.83648 -7.222292,29.95857 0.105339,0.4681 -0.09018,1.53294 -0.434484,2.36631 -0.344305,0.83338 -1.501369,6.2882 -2.571253,12.12183 -2.010309,10.96137 -2.058492,11.2772 -2.619915,17.1726 -0.18518,1.94454 -0.595015,4.21739 -0.910745,5.05076 -0.888095,2.34415 -3.507118,26.11291 -4.730517,42.93148 -0.894942,12.30315 -0.950631,41.34125 -0.154193,80.40301 0.282219,13.84161 8.148722,69.32669 11.51532,81.2214 0.628993,2.22234 1.088908,4.30479 1.02203,4.62766 -0.06688,0.32288 0.7193,3.85617 1.747063,7.85177 l 1.868659,7.2647 -2.712143,1.40251 c -4.171154,2.15699 -46.483677,16.73408 -48.573548,16.73408 -1.015664,0 -2.122579,-0.71902 -2.459812,-1.59785 z"
       id="path874"
       inkscape:connector-curvature="0"
       transform="scale(0.26458333)" />
    <path
       style="opacity:1;fill:#f9f9f9;fill-opacity:1;stroke:none;stroke-width:12.81287003;stroke-miterlimit:4;stroke-dasharray:none;stroke-opacity:1;paint-order:stroke markers fill"
       d="M 43.86179,719.94906 C 42.921054,717.49754 43.240292,118.24697 44.196871,90.958192 45.138072,64.108084 45.47652,62.818136 52.08339,60.899737 c 2.713324,-0.787852 102.794,-1.01527 351.78971,-0.799387 334.3013,0.289845 348.10391,0.373918 350.69989,2.13614 1.48628,1.008932 3.2451,3.281775 3.90846,5.050763 1.52713,4.072332 2.63717,42.859757 1.26584,44.231087 -0.62079,0.6208 -4.76406,-1.70304 -11.49472,-6.44708 -5.78823,-4.07976 -18.47901,-13.04039 -28.20172,-19.912509 -33.93042,-23.982375 -37.37358,-25.408875 -42.57647,-17.639418 -1.50523,2.247744 -16.67846,29.976431 -33.71829,61.619307 -34.6964,64.43102 -45.12888,83.2904 -46.07426,83.29098 -0.35508,2.3e-4 -3.30978,-2.76404 -6.56599,-6.1428 -12.10576,-12.56142 -41.89457,-35.55361 -44.67909,-34.48509 -0.87937,0.33745 -1.20669,0.13346 -0.8116,-0.5058 0.69405,-1.12301 -3.90878,-4.65948 -6.06447,-4.65948 -0.68769,0 -1.49399,-0.63491 -1.79176,-1.4109 -0.29778,-0.77599 -0.99919,-1.12797 -1.55871,-0.78218 -0.5595,0.34579 -1.01728,0.22866 -1.01728,-0.26031 0,-0.9435 -15.61504,-9.98351 -18.18275,-10.52652 -0.83337,-0.17624 -1.74452,-0.62121 -2.02478,-0.98883 -1.75374,-2.30044 -35.84194,-15.42901 -37.46182,-14.42787 -0.50572,0.31256 -0.9195,0.14299 -0.9195,-0.37681 0,-1.12111 -20.93456,-6.53665 -22.21331,-5.74633 -0.48433,0.29933 -1.17956,0.0605 -1.54496,-0.53073 -0.3654,-0.59124 -1.41959,-0.98336 -2.34265,-0.87139 -0.92305,0.11197 -2.36013,-0.0846 -3.1935,-0.43682 -7.1821,-3.03548 -53.21978,-4.83209 -68.1853,-2.66091 -3.3335,0.48362 -8.2029,1.11574 -10.82088,1.40472 -12.92516,1.42671 -45.24259,9.93243 -45.24259,11.90753 0,0.50022 -0.43937,0.63793 -0.97639,0.30604 -1.39313,-0.86101 -21.71738,7.62424 -35.3891,14.77473 -15.26685,7.98476 -37.69343,22.76386 -36.78168,24.23909 0.42081,0.68089 0.14084,0.93683 -0.70589,0.64532 -1.77193,-0.61002 -14.95278,9.49802 -25.36102,19.4487 -4.37849,4.186 -8.09718,7.47462 -8.26375,7.30806 -0.16657,-0.16658 -4.95918,4.70439 -10.65022,10.82436 -5.69105,6.11998 -10.1687,11.12722 -9.95033,11.12722 0.21838,0 -1.78532,2.32451 -4.45266,5.16558 -2.66734,2.84107 -4.8497,5.74713 -4.8497,6.45792 0,0.71079 -0.62391,1.53175 -1.38648,1.82438 -1.70687,0.65498 -12.34783,14.86407 -11.99804,16.02124 0.13889,0.4595 -0.18509,0.83546 -0.71998,0.83546 -1.32008,0 -9.19916,11.71497 -8.4099,12.50422 0.34527,0.34527 0.15783,0.62776 -0.41652,0.62776 -1.24788,0 -6.70022,7.99856 -6.70022,9.8292 0,0.70536 -0.33561,1.28248 -0.7458,1.28248 -1.01473,0 -10.36588,16.0585 -10.36588,17.80109 0,0.76549 -0.3731,1.39181 -0.82909,1.39181 -1.05087,0 -8.22092,14.13671 -7.18065,14.1576 0.42367,0.008 0.21541,0.36804 -0.4628,0.79895 -2.48674,1.58 -22.67004,47.7723 -23.69918,54.2389 -0.17684,1.11116 -0.6145,2.24759 -0.97258,2.52538 -0.85617,0.66418 -10.00784,29.50238 -10.33437,32.56503 -0.13902,1.30388 -0.53535,2.82793 -0.88073,3.38677 -2.108589,3.41177 -12.665541,52.60995 -13.350281,62.21583 -0.185386,2.60069 -0.585121,5.12989 -0.8883,5.62044 -0.303178,0.49056 -0.812726,3.59027 -1.132329,6.88823 -0.319602,3.29798 -1.3248,12.13299 -2.233773,19.63338 -1.260313,10.39945 -1.662037,22.99014 -1.692097,53.03301 -0.02168,21.66777 0.02969,41.48465 0.114147,44.03751 0.495956,14.99072 8.270715,69.54951 11.574244,81.2214 0.628993,2.22234 1.088908,4.30479 1.02203,4.62766 -0.06688,0.32288 0.7193,3.85617 1.747063,7.85177 l 1.868659,7.2647 -2.780711,1.43796 c -4.258177,2.20199 -46.338287,16.69863 -48.471932,16.69863 -1.03384,0 -2.155627,-0.71902 -2.49286,-1.59785 z"
       id="path876"
       inkscape:connector-curvature="0"
       transform="scale(0.26458333)" />
    <path
       style="opacity:1;fill:#eeffaa;fill-opacity:1;stroke:none;stroke-width:12.81287003;stroke-miterlimit:4;stroke-dasharray:none;stroke-opacity:1;paint-order:stroke markers fill"
       d="m 44.932226,720.87347 c -0.370389,-0.37038 -0.758123,-7.07527 -0.86163,-14.89975 -0.178641,-13.50415 -0.223205,-13.79045 -0.877902,-5.64001 -0.379338,4.72246 -0.518896,-51.41677 -0.310127,-124.75384 0.208769,-73.33708 0.490183,-215.06569 0.625364,-314.95247 0.135181,-99.88679 0.569767,-180.57272 0.965746,-179.302078 0.39598,1.270641 0.616409,-1.17348 0.489842,-5.43138 -0.126567,-4.257901 0.117661,-7.526696 0.542728,-7.26399 0.425067,0.262705 0.82967,-0.458318 0.899118,-1.602275 0.06945,-1.143956 0.18309,-2.55107 0.252538,-3.126918 0.165183,-1.369663 2.833826,-3.000255 3.866111,-2.362268 0.443214,0.273922 0.805845,0.02203 0.805845,-0.559763 0,-0.736095 105.298341,-0.872757 346.229781,-0.449355 190.42639,0.334646 348.50263,0.670188 351.28055,0.745649 4.08663,0.11101 5.4329,0.619271 7.05261,2.662582 1.10101,1.388959 2.285,2.654881 2.6311,2.81316 0.3461,0.158278 0.40214,1.475902 0.12454,2.928053 -0.2776,1.45215 -0.0979,2.393064 0.39935,2.090917 0.99639,-0.605449 1.83884,33.666886 0.91899,37.386346 -0.54443,2.20149 -0.6794,2.22814 -3.6096,0.71287 -1.67421,-0.86577 -11.32353,-7.55046 -21.44295,-14.85488 -25.78235,-18.610282 -45.73368,-31.828479 -49.18581,-32.586696 -6.38434,-1.402237 -4.27143,-4.707258 -41.97338,65.654916 -40.86979,76.27427 -44.79374,83.33759 -46.29721,83.33759 -0.51941,0 -4.85463,-3.75463 -9.63382,-8.34361 -13.56949,-13.02943 -33.60442,-28.61916 -39.8132,-30.97973 -1.494,-0.56802 -2.71636,-1.43111 -2.71636,-1.91798 0,-1.29424 -20.91484,-13.32509 -34.3559,-19.76256 -19.4896,-9.33435 -46.85917,-17.77187 -71.20504,-21.95117 -2.77792,-0.47686 -15.73312,-1.15772 -28.78934,-1.51302 -19.20731,-0.52267 -26.24525,-0.32249 -36.87057,1.04873 -26.71048,3.44704 -52.48844,11.16255 -78.03284,23.35572 -18.14362,8.66054 -39.4109,21.55932 -45.48278,27.58566 -0.95881,0.95162 -2.97393,2.35091 -4.47803,3.10954 -7.9209,3.99505 -33.83426,27.74239 -48.1738,44.14712 -15.92711,18.22091 -23.58107,27.95557 -31.11957,39.57932 -1.55359,2.39551 -3.78125,5.57749 -4.95035,7.07107 -6.06234,7.74495 -19.67309,32.11005 -30.29566,54.23337 -21.43708,44.64641 -35.199819,89.08894 -43.794646,141.42136 -5.885912,35.8383 -6.412544,43.46861 -6.518729,94.44926 -0.09586,46.02418 -0.04087,47.3957 2.725246,67.96322 3.372702,25.07783 6.839916,45.23761 10.295546,59.86244 1.396305,5.9094 2.538736,11.18365 2.538736,11.72054 0,1.47716 -8.549673,4.94767 -30.413849,12.3457 -21.583074,7.30293 -20.477266,6.992 -21.440648,6.02861 z"
       id="path878"
       inkscape:connector-curvature="0"
       transform="scale(0.26458333)" />
    <path
       style="opacity:1;fill:#d4ff2a;fill-opacity:1;stroke:none;stroke-width:12.81287003;stroke-miterlimit:4;stroke-dasharray:none;stroke-opacity:1;paint-order:stroke markers fill"
       d="m 44.845092,719.27407 c -2.015766,-9.03596 -2.391931,-48.47072 -1.982561,-207.83889 0.34594,-134.67459 1.295643,-372.97859 1.746157,-438.153665 0.02016,-2.916816 0.414307,-5.303301 0.875878,-5.303301 0.461571,0 0.83922,-1.120428 0.83922,-2.489841 0,-1.526976 0.878947,-2.987952 2.272843,-3.777892 C 51.530583,60.047768 318.0085,59.499608 574.8203,60.628008 l 178.47865,0.784214 3.02006,2.893898 c 1.66103,1.591644 2.78679,3.501792 2.50167,4.244775 -0.2851,0.742983 -0.20836,1.852482 0.17054,2.465554 0.3789,0.613071 0.92582,9.400047 1.21539,19.526612 0.44098,15.421899 0.28535,18.612069 -0.95838,19.644269 -1.22735,1.01861 -5.32064,-1.51535 -23.60178,-14.610677 -29.83934,-21.374823 -46.42119,-32.39106 -49.90856,-33.157015 -6.35386,-1.395541 -4.36819,-4.50623 -41.9149,65.662652 -31.39066,58.6642 -37.85842,70.58053 -42.66238,78.60216 l -3.51611,5.87118 -7.21232,-6.90625 c -14.52585,-13.90945 -33.70701,-29.09141 -41.05242,-32.49317 -1.94455,-0.90055 -4.14962,-2.46154 -4.90016,-3.46889 -0.75056,-1.00733 -2.34155,-2.27692 -3.53554,-2.82129 -1.194,-0.54437 -3.08004,-1.54395 -4.19121,-2.22129 -36.22752,-22.08321 -74.76611,-34.7141 -113.5532,-37.21666 -44.69034,-2.88344 -80.57007,3.42952 -121.30727,21.34374 -16.34867,7.18935 -38.18793,19.86385 -48.00475,27.85977 -2.90439,2.36565 -6.58761,4.98326 -8.18493,5.81689 -9.30258,4.85497 -39.00594,33.05975 -55.00495,52.22985 -12.13418,14.53925 -34.26734,44.80734 -34.26734,46.86213 0,0.26885 -1.33763,2.47081 -2.97251,4.89324 -6.47769,9.59811 -23.34991,42.86949 -31.79031,62.68927 -15.10304,35.465 -27.277582,79.04462 -34.34538,122.94163 -4.944077,30.70691 -5.643085,42.08301 -5.643085,91.83932 0,43.61931 0.154995,47.68409 2.53056,66.36439 3.026085,23.79568 5.662931,39.60392 9.65581,57.88783 1.631255,7.46972 2.965918,14.11285 2.965918,14.76251 0,0.64965 -5.341181,3.12837 -11.869292,5.50827 -14.049042,5.12174 -37.720452,13.11999 -38.829564,13.11999 -0.429238,0 -1.008597,-1.02278 -1.287465,-2.27284 z"
       id="path880"
       inkscape:connector-curvature="0"
       transform="scale(0.26458333)" />
  </g>
  <g
     inkscape:label="Capa 1"
     inkscape:groupmode="layer"
     id="layer1"
     style="display:inline;opacity:0.88">
    <g
       inkscape:groupmode="layer"
       id="layer3"
       inkscape:label="Capa 2"
       style="opacity:0.88">
      <rect
         style="opacity:0.72000002;fill:url(#linearGradient4845);fill-opacity:1.0;stroke:none;stroke-width:3.35599995;stroke-miterlimit:4;stroke-dasharray:none;stroke-opacity:1;paint-order:stroke markers fill;filter:url(#filter6520)"
         id="rect6358"
         width="204.71309"
         height="282.45053"
         x="3.9297447"
         y="8.2261906"
         ry="0" />
      <path
         style="opacity:1;fill:#d4ff2a;fill-opacity:1;stroke:none;stroke-width:12.81287003;stroke-miterlimit:4;stroke-dasharray:none;stroke-opacity:1;paint-order:stroke markers fill"
         d="m 576.65387,723.96783 c -14.14714,-1.66401 -34.90103,-5.68675 -47.22463,-9.15358 l -5.3033,-1.49192 v -29.22274 -29.22275 h 9.44345 9.44345 l 2.23504,8.46056 c 5.77941,21.87742 16.14123,34.86181 32.07383,40.1917 7.40371,2.47676 24.86076,3.5187 33.17227,1.97993 8.63881,-1.59935 19.83425,-7.37586 24.27886,-12.52714 8.69927,-10.08242 11.99574,-20.67506 12.01562,-38.61012 0.0174,-15.66096 -2.09808,-23.99001 -8.54527,-33.64475 -7.69214,-11.51907 -17.73914,-19.24162 -46.9421,-36.08169 -25.71555,-14.82903 -30.34429,-18.10846 -41.96182,-29.7297 -11.66665,-11.67038 -16.06116,-18.67596 -20.30446,-32.36877 -3.16238,-10.20473 -3.18541,-30.81695 -0.0476,-42.54538 13.02355,-48.67828 63.62285,-67.0293 137.10372,-49.72386 l 11.57815,2.72676 v 29.11388 29.11387 h -9.38521 -9.38519 l -1.78545,-6.81853 c -2.76501,-10.55946 -9.84546,-24.25667 -15.46972,-29.92632 -8.96844,-9.04082 -19.19124,-12.21223 -37.11423,-11.5139 -17.28302,0.67339 -27.70628,5.75592 -35.1473,17.13831 -5.79464,8.86396 -7.11981,13.32046 -7.64757,25.71853 -0.59806,14.0496 1.34612,23.80651 6.4359,32.2987 7.34266,12.25109 17.49088,20.4253 44.44284,35.79798 30.93834,17.64637 45.65143,29.01627 55.4648,42.86177 10.66709,15.05 13.93079,26.0608 13.92423,46.9765 -0.007,21.78891 -3.43485,35.21018 -12.57747,49.2428 -9.1121,13.9858 -25.57627,24.60486 -44.46028,28.67602 -9.13578,1.96956 -38.98546,3.38068 -48.31061,2.28384 z"
         id="path882"
         inkscape:connector-curvature="0"
         transform="scale(0.26458333)" />
    </g>
    <g
       style="opacity:1;paint-order:stroke markers fill;stroke-width:3.356;stroke-miterlimit:4;stroke-dasharray:none"
       id="use6198"
       transform="translate(1.9101428,0.08805786)">
      <path
         id="path6316"
         style="fill:#353564;fill-rule:evenodd;stroke:none;stroke-width:3.356;stroke-linejoin:round;paint-order:stroke markers fill;stroke-miterlimit:4;stroke-dasharray:none"
         d="M 179.04298,16.996728 V 126.26532 l 24.48826,4.76928 V 35.666196 Z"
         inkscape:connector-curvature="0" />
      <path
         id="path6318"
         style="fill:#afafde;fill-rule:evenodd;stroke:none;stroke-width:3.356;stroke-linejoin:round;paint-order:stroke markers fill;stroke-miterlimit:4;stroke-dasharray:none"
         d="M 179.04298,126.26532 44.415425,191.09213 5.5169208,194.34259 203.53124,131.0346 Z"
         inkscape:connector-curvature="0" />
      <path
         id="path6320"
         style="fill:#8686bf;fill-rule:evenodd;stroke:none;stroke-width:3.356;stroke-linejoin:round;paint-order:stroke markers fill;stroke-miterlimit:4;stroke-dasharray:none"
         d="M 179.04298,16.996728 44.415425,270.7629 V 191.09213 L 179.04298,126.26532 Z"
         inkscape:connector-curvature="0" />
      <path
         id="path6322"
         style="fill:#4d4d9f;fill-rule:evenodd;stroke:none;stroke-width:3.356;stroke-linejoin:round;paint-order:stroke markers fill;stroke-miterlimit:4;stroke-dasharray:none"
         d="M 179.04298,16.996728 44.415425,270.7629 5.5169208,283.48694 203.53124,35.666196 Z"
         inkscape:connector-curvature="0" />
      <path
         id="path6324"
         style="fill:#e9e9ff;fill-rule:evenodd;stroke:none;stroke-width:3.356;stroke-linejoin:round;paint-order:stroke markers fill;stroke-miterlimit:4;stroke-dasharray:none"
         d="M 203.53124,35.666196 5.5169208,283.48694 V 194.34259 L 203.53124,131.0346 Z"
         inkscape:connector-curvature="0" />
      <path
         id="path6326"
         style="fill:#d7d7ff;fill-rule:evenodd;stroke:none;stroke-width:3.356;stroke-linejoin:round;paint-order:stroke markers fill;stroke-miterlimit:4;stroke-dasharray:none"
         d="m 44.415425,270.7629 v -79.67077 l -38.8985042,3.25046 v 89.14435 z"
         inkscape:connector-curvature="0" />
    </g>
    <path
       style="opacity:1;fill:#ccff00;fill-opacity:1;stroke:#000000;stroke-width:2.85714293;stroke-opacity:1;paint-order:stroke markers fill"
       d=""
       id="path6266"
       inkscape:connector-curvature="0"
       transform="scale(0.26458333)" />
    <path
       style="opacity:1;fill:#aad400;fill-opacity:1;stroke:#000000;stroke-width:3.356;stroke-opacity:1;paint-order:stroke markers fill;stroke-miterlimit:4;stroke-dasharray:none"
       d="m 47.030253,251.8254 -0.0114,-17.20478 25.423086,-31.77028 c 13.982729,-17.47366 25.586803,-31.60659 25.786883,-31.40651 0.307627,0.30764 -7.654168,15.50068 -47.177983,90.02683 l -4.009076,7.55952 z"
       id="path6306"
       inkscape:connector-curvature="0" />
    <path
       style="opacity:1;fill:#aad400;fill-opacity:1;stroke:#000000;stroke-width:3.356;stroke-opacity:1;paint-order:stroke markers fill;stroke-miterlimit:4;stroke-dasharray:none"
       d="m 106.73873,158.03725 c 0,-0.66485 73.2671,-138.95752 74.10495,-139.874124 0.4391,-0.48039 18.25358,12.270664 23.67185,16.943576 0.35028,0.302114 -21.21228,27.885191 -47.91684,61.29573 -52.70542,65.941018 -49.85996,62.423608 -49.85996,61.634818 z"
       id="path6308"
       inkscape:connector-curvature="0" />
    <path
       style="opacity:1;fill:#ccff00;fill-opacity:1;stroke:#000000;stroke-width:3.356;stroke-opacity:1;paint-order:stroke markers fill;stroke-miterlimit:4;stroke-dasharray:none"
       d="m 46.262826,212.86292 c 0,-17.32396 -0.18994,-21.31785 -1.013904,-21.31785 -0.557677,0 -9.105479,0.69365 -18.995142,1.54145 -17.2744704,1.48087 -21.527914,1.55308 -16.14151,0.27405 1.380994,-0.32792 2.766025,-0.65795 3.077835,-0.73339 0.311837,-0.0755 0.737064,-0.22222 0.944954,-0.32616 0.207877,-0.10395 0.718154,-0.27403 1.133914,-0.37798 0.415767,-0.10394 0.926034,-0.27403 1.133921,-0.37797 0.20788,-0.10395 0.718147,-0.27404 1.133914,-0.37798 0.41577,-0.10394 0.926037,-0.27403 1.133924,-0.37798 0.20788,-0.10394 0.633117,-0.26001 0.944954,-0.34683 0.31181,-0.0868 1.460144,-0.53005 2.551808,-0.98498 1.851258,-0.77147 7.145638,-2.32491 9.732323,-2.85559 0.623677,-0.12795 1.218984,-0.30118 1.322914,-0.38497 0.103947,-0.0838 0.529167,-0.23738 0.944954,-0.34132 0.415757,-0.10394 0.926034,-0.27403 1.133914,-0.37798 0.207887,-0.10394 0.633097,-0.26001 0.944934,-0.34682 0.311827,-0.0868 1.490331,-0.54153 2.618905,-1.0105 2.100728,-0.87291 9.626896,-3.14862 11.836154,-3.57892 0.676984,-0.13186 1.315891,-0.30829 1.419851,-0.39208 0.10395,-0.0838 0.529157,-0.23737 0.944924,-0.34132 0.415787,-0.10394 0.926034,-0.27403 1.133914,-0.37797 0.20791,-0.10395 0.633117,-0.26002 0.944954,-0.34683 0.31181,-0.0868 1.490341,-0.54154 2.618915,-1.0105 1.845141,-0.76672 9.299419,-3.05839 11.458167,-3.52258 0.469077,-0.10087 1.421621,-0.43107 2.116758,-0.73378 0.695134,-0.30271 1.715678,-0.642 2.267865,-0.75398 0.552177,-0.11197 1.927341,-0.58302 3.055915,-1.04676 1.855968,-0.76264 9.344056,-3.05851 11.458174,-3.5131 0.469077,-0.10087 1.421621,-0.43107 2.116758,-0.73378 0.695137,-0.30271 1.715651,-0.64289 2.267838,-0.75596 0.552177,-0.11306 1.514221,-0.42137 2.137898,-0.68512 3.229092,-1.36565 7.559487,-2.64881 7.559487,-2.23999 0,0.36433 -52.660322,66.41286 -55.296687,69.35517 -0.355787,0.39707 -0.643497,-8.81321 -0.643497,-20.5997 z"
       id="path6310"
       inkscape:connector-curvature="0" />
    <path
       style="opacity:1;fill:#ccff00;fill-opacity:1;stroke:#000000;stroke-width:3.356;stroke-opacity:1;paint-order:stroke markers fill;stroke-miterlimit:4;stroke-dasharray:none"
       d="m 104.95417,162.92734 c -0.1443,-0.26756 21.64858,-27.871 48.42867,-61.34098 26.78007,-33.469805 49.34146,-61.704633 50.13643,-62.744067 1.42801,-1.86717 1.44565,-1.321033 1.46931,45.447898 l 0.0241,47.337949 -3.59076,1.02498 c -1.97493,0.56375 -3.76087,1.06256 -3.96875,1.10848 -0.20789,0.0459 -0.94673,0.33545 -1.64185,0.6434 -0.69514,0.30795 -1.71569,0.62831 -2.26787,0.71192 -0.55219,0.0836 -1.34414,0.36106 -1.75993,0.61654 -0.74893,0.46021 -11.04699,3.62256 -13.22917,4.06243 -0.62365,0.12572 -1.21896,0.29713 -1.32292,0.38091 -0.10392,0.0838 -0.52916,0.23738 -0.94493,0.34133 -0.41576,0.10394 -0.92604,0.27403 -1.13392,0.37798 -0.20789,0.10394 -0.63312,0.26001 -0.94494,0.34682 -0.31183,0.0868 -1.46015,0.53006 -2.55185,0.98499 -1.85126,0.77148 -7.14565,2.32493 -9.73238,2.85561 -0.62365,0.12795 -1.21896,0.30119 -1.32292,0.38497 -0.10395,0.0838 -0.52916,0.23738 -0.94493,0.34132 -0.41579,0.10395 -0.92604,0.27404 -1.13392,0.37798 -0.20791,0.10394 -0.71816,0.27403 -1.13396,0.37798 -0.41576,0.10394 -0.92604,0.27403 -1.13392,0.37798 -0.20788,0.10394 -0.6331,0.26002 -0.94493,0.34682 -0.31184,0.0868 -1.46016,0.53007 -2.55183,0.985 -1.85129,0.77148 -7.14568,2.32492 -9.73241,2.8556 -0.62365,0.12796 -1.21896,0.30119 -1.32291,0.38498 -0.10393,0.0838 -0.52917,0.23737 -0.94494,0.34132 -0.41576,0.10394 -0.92604,0.27403 -1.13392,0.37797 -0.20788,0.10395 -0.63312,0.26002 -0.94493,0.34683 -0.31184,0.0868 -1.49038,0.54155 -2.61896,1.01051 -2.10071,0.87292 -9.62691,3.14864 -11.83618,3.57894 -0.67699,0.13186 -1.31594,0.30829 -1.41986,0.39208 -0.10396,0.0838 -0.52917,0.23738 -0.94496,0.34132 -0.41577,0.10394 -0.92604,0.27403 -1.13393,0.37798 -0.20788,0.10394 -0.63309,0.26089 -0.94493,0.34877 -0.31184,0.0879 -1.07723,0.38742 -1.7009,0.66566 -2.92783,1.30617 -12.89087,4.06176 -13.12384,3.6298 z"
       id="path6312"
       inkscape:connector-curvature="0" />
    <path
       style="opacity:1;fill:#88aa00;fill-opacity:1;stroke:#000000;stroke-width:3.356;stroke-opacity:1;paint-order:stroke markers fill;stroke-miterlimit:4;stroke-dasharray:none"
       d="m 7.7095065,239.01469 v -44.1025 l 5.1026385,-0.20993 c 2.806445,-0.11546 11.035997,-0.70242 18.287868,-1.30435 9.108916,-0.75608 13.336385,-0.8499 13.674092,-0.30347 0.479587,0.77599 1.485421,46.00295 1.487611,66.89001 v 10.60903 l -12.661008,4.13204 c -6.964161,2.27263 -12.769138,4.36807 -12.899948,4.65654 -0.130807,0.28848 -0.726114,0.33712 -1.322911,0.10811 -0.596787,-0.22901 -1.085074,-0.0505 -1.085074,0.39672 0,0.44721 -0.510277,0.6173 -1.133944,0.37798 -0.623647,-0.23933 -1.133924,-0.0693 -1.133924,0.37797 0,0.44721 -0.510247,0.6173 -1.133914,0.37798 -0.623644,-0.23933 -1.133924,-0.13145 -1.133924,0.23971 0,0.37116 -0.595304,0.68578 -1.322901,0.69914 -0.727607,0.0134 -2.088318,0.27928 -3.0238014,0.59092 l -1.7008601,0.5666 z"
       id="path6314"
       inkscape:connector-curvature="0" />
    <ellipse
       style="opacity:0.8;fill:url(#radialGradient6344);fill-opacity:1;stroke:url(#radialGradient4827);stroke-width:3.356;stroke-opacity:1;paint-order:stroke markers fill;stroke-miterlimit:4;stroke-dasharray:none"
       id="path6334"
       cx="106.96728"
       cy="148.83334"
       rx="99.439583"
       ry="133.83542" />
    <text
       xml:space="preserve"
       style="font-style:normal;font-variant:normal;font-weight:normal;font-stretch:normal;font-size:64.52494049px;line-height:1.25;font-family:Comfortaa;-inkscape-font-specification:Comfortaa;letter-spacing:0px;word-spacing:0px;fill:#000000;fill-opacity:1;stroke:none;stroke-width:3.356;stroke-miterlimit:4;stroke-dasharray:none"
       x="39.88319"
       y="182.80537"
       id="text6350"
       transform="scale(0.95738911,1.0445074)"><tspan
         sodipodi:role="line"
         id="tspan6348"
         x="39.88319"
         y="182.80537"
         style="font-style:normal;font-variant:normal;font-weight:normal;font-stretch:normal;font-size:112.02246857px;font-family:'Cambria Math';-inkscape-font-specification:'Cambria Math';stroke-width:3.356;stroke-miterlimit:4;stroke-dasharray:none">ICS</tspan></text>
  </g>
</svg>
