<svg xmlns="http://www.w3.org/2000/svg" xmlns:xlink="http://www.w3.org/1999/xlink" width="210mm" height="297mm" viewBox="0 0 210 297"><defs><linearGradient id="b"><stop offset="0"/><stop offset="1" stop-opacity="0"/></linearGradient><linearGradient id="a"><stop offset="0" stop-color="#8a0"/><stop offset="1" stop-color="#8a0" stop-opacity="0"/></linearGradient><linearGradient xlink:href="#a" id="c" x1="-6.885" y1="149.451" x2="219.458" y2="149.451" gradientUnits="userSpaceOnUse"/><radialGradient xlink:href="#a" id="e" cx="589.265" cy="108.012" fx="589.265" fy="108.012" r="160.016" gradientTransform="matrix(.62195 0 0 .83715 -259.525 58.41)" gradientUnits="userSpaceOnUse"/><radialGradient xlink:href="#b" id="f" cx="106.967" cy="148.833" fx="106.967" fy="148.833" r="101.118" gradientTransform="matrix(1 0 0 1.34016 0 -50.627)" gradientUnits="userSpaceOnUse"/><filter id="d" x="-.053" width="1.106" y="-.038" height="1.077" color-interpolation-filters="sRGB"><feGaussianBlur stdDeviation="4.506"/></filter></defs><g opacity=".4" fill="#fff" paint-order="stroke markers fill"><path opacity=".11" d="M3.93 8.226h204.713v282.451H3.93z"/><path d="M11.36 104.766c-.14-85.686-.132-86.163 1.395-87.69 1.527-1.527 2.068-1.536 93.645-1.536 106.232 0 94.418-1.07 95.151 8.622.24 3.158.19 5.74-.11 5.74s-2.475-1.477-4.834-3.284c-8.959-6.86-15.304-10.659-16.522-9.89-.906.571-21.243 37.59-22.397 40.767-.15.416-1.9-.605-3.887-2.268-10.216-8.55-19.046-13.536-29.556-16.69-5.772-1.731-8.211-2.037-16.594-2.082-10.987-.06-16.426.974-25.91 4.922-16.468 6.856-32.428 22.494-43.068 42.199-14.27 26.428-19 62.876-12.393 95.509l1.31 6.475-7.462 2.68c-4.104 1.475-7.724 2.68-8.044 2.68-.32 0-.645-38.769-.723-86.154z"/></g><g paint-order="stroke markers fill"><path opacity=".11" fill="#cf0" d="M3.93 8.226h204.713v282.451H3.93z"/><path d="M11.32 179.884c.175-12.705.175-24.592-.001-104.302-.142-63.985-.35-58.216 2.136-59.467l1.329-.668h183.08l1.246.576c2.046.946 2.175 1.437 2.293 8.734.072 4.49.023 5.528-.255 5.361-.19-.113-1.968-1.425-3.953-2.915-4.215-3.165-10.88-7.865-13.363-9.423-3.083-1.934-3.693-1.825-5.305.945-1.053 1.81-13.323 24.762-18.507 34.618l-2.782 5.289-1.67-1.75c-.919-.963-1.67-1.686-1.67-1.608 0 .078-.391-.212-.87-.645-1.716-1.558-2.246-1.988-5.144-4.168-4.467-3.36-10.002-6.748-10.39-6.36-.092.091-.167.029-.167-.14 0-.39-2.07-1.46-2.415-1.247-.142.088-.258.025-.258-.14 0-.164-.12-.224-.267-.133-.147.09-.267.06-.267-.068 0-.327-1.854-1.177-2.157-.99-.137.085-.249.045-.249-.088 0-.31-2.136-1.158-2.442-.97-.127.079-.23.038-.23-.09 0-.518-8.52-2.962-11.894-3.412-5.79-.774-13.201-.884-17.907-.267-3.878.509-6.263.935-7.083 1.265a8 8 0 01-1.47.392c-3.086.474-15.635 5.679-15.635 6.485 0 .106-.15.194-.334.196-.434.003-3.414 1.83-6.615 4.054-5.95 4.134-12.856 10.686-17.937 17.018-2.646 3.297-7.088 9.62-7.236 10.3-.046.211-.23.504-.408.652-.441.364-3.093 4.995-3.1 5.413-.003.184-.102.334-.22.334-.252 0-3.973 7.516-3.973 8.027 0 .192-.178.546-.395.786-.217.24-.435.702-.484 1.027-.05.325-.233.734-.408.908-.174.174-.317.45-.317.614 0 .164-.24.795-.534 1.404-.294.608-.535 1.272-.535 1.476 0 .203-.09.46-.2.57-.11.11-.211.28-.224.378a3.522 3.522 0 01-.18.579c-.086.22-.362 1.062-.613 1.87-.252.81-.546 1.591-.654 1.738-.218.296-.925 3.147-.821 3.311.036.057-.043.177-.176.267-.306.208-1.166 3.248-.997 3.522.07.112.021.245-.107.294-.13.05-.664 1.894-1.188 4.099-3.132 13.173-4.408 25.123-4.11 38.487.148 6.627.573 13.17.911 14.031.087.22.133.555.103.743-.076.466.991 7.686 1.332 9.013.152.588.282 1.249.291 1.47.009.22.176 1.122.372 2.004.482 2.17.708 3.396.715 3.875.004.221.095.522.203.669.108.147.162.477.12.735-.04.257.035.467.169.467s.243.166.243.368c0 .234-1.295.808-3.541 1.57-1.948.661-5.498 1.879-7.89 2.706-2.391.827-4.528 1.504-4.75 1.504-.353 0-.382-1.355-.245-11.293zm.314-64.278c-.06-.404-.111-.073-.111.735 0 .809.05 1.14.111.735a5.904 5.904 0 000-1.47z" fill="#fff"/><path d="M10.635 184.834c-.075-85.621.061-165.793.284-166.62.432-1.604 1.372-2.501 3.14-2.997 1.433-.402 9.015-.438 92.265-.438s90.83.036 92.265.438c1.76.494 2.695 1.381 3.138 2.978.152.546.277 3.607.278 6.802l.001 5.808-4.21-3.162c-8.443-6.343-15.186-10.877-16.593-11.158-1.522-.305-1.083-1.05-16.623 28.228-3.706 6.982-6.785 12.747-6.842 12.81-.057.062-.494-.238-.97-.668l-.866-.782.836.935c.46.514.79 1.055.735 1.202-.055.147-1.213-.816-2.573-2.139-6.986-6.798-17.041-13.137-25.992-16.386-14.787-5.366-31-5.129-45.57.667-23.55 9.368-42.791 31.845-52.798 61.676-8.512 25.376-9.895 53.815-3.886 79.928.95 4.13 1.229 3.68-3.231 5.243-5.959 2.088-11.325 3.905-12.047 4.078l-.735.177zm1.004-22.723c-.055-.698-.1-.127-.1 1.27 0 1.396.045 1.967.1 1.27.055-.7.055-1.842 0-2.54zm-.005-9.354c-.06-.405-.111-.074-.111.735 0 .808.05 1.139.111.735a5.904 5.904 0 000-1.47zm10.95.684c-.086-.213-.15-.15-.162.162-.012.282.052.44.14.35.09-.088.099-.319.021-.512zm0-9.621c-.086-.213-.15-.15-.162.161-.012.282.052.44.14.351.09-.089.099-.32.021-.512zm-10.945-10.841c-.055-.699-.1-.127-.1 1.27 0 1.396.045 1.967.1 1.269a19.57 19.57 0 000-2.54zm43.136-73.5c.332-.423.323-.433-.101-.1-.258.201-.468.412-.468.467 0 .22.22.079.569-.367z" fill="#fff"/><path d="M11.43 187.1c-.028-8.216-.027-17.597.005-36.281.018-10.51.03-44.427.027-75.37-.007-62.759-.156-57.904 1.822-59.134l.965-.6h92.075c88.465 0 92.109.018 92.964.485 1.662.907 1.904 1.951 1.91 8.267.004 3.05-.05 5.546-.12 5.546-.07 0-1.784-1.243-3.81-2.763-4.256-3.195-10.919-7.89-13.436-9.47-3.084-1.934-3.695-1.825-5.302.945-1.107 1.909-8.436 15.585-16.076 29.997-2.532 4.777-4.653 8.738-4.712 8.8-.06.063-.498-.237-.974-.667l-.866-.782.836.935c.46.514.79 1.055.735 1.202-.055.147-1.213-.816-2.573-2.139-6.986-6.798-17.041-13.137-25.992-16.386-14.787-5.366-31-5.129-45.57.667-23.55 9.368-42.791 31.845-52.798 61.676-8.51 25.367-9.899 53.955-3.884 79.927.628 2.714.733 3.542.48 3.78-.179.168-1.768.805-3.532 1.414-9.855 3.407-11.69 4.028-11.914 4.028-.14 0-.253-1.774-.26-4.076zm11.153-33.659c-.085-.213-.148-.15-.161.162-.012.282.052.44.14.35.09-.088.099-.319.021-.512zm0-9.621c-.085-.213-.148-.15-.161.161-.012.282.052.44.14.351.09-.089.099-.32.021-.512zm32.192-84.34c.332-.424.323-.434-.101-.101-.258.201-.468.412-.468.467 0 .22.22.079.569-.367z" fill="green"/><path d="M11.613 189.67c-.243-1.776-.172-147.17.08-160.459.123-6.567.322-11.37.487-11.774.16-.39.72-.88 1.308-1.144.969-.435 6.353-.457 93.115-.387 88.674.073 92.113.093 92.831.564.41.269.912.886 1.115 1.372.444 1.062.783 8.765.468 10.62l-.214 1.257-5.773-4.196c-6.463-4.698-11.402-8.062-12.85-8.753-1.324-.631-2.172-.354-3.112 1.018-.428.623-3.094 5.463-5.925 10.755-8.217 15.359-14.758 27.52-14.864 27.637-.054.06-1.153-.908-2.442-2.15-6.015-5.8-14.141-11.293-21.73-14.693-14.914-6.68-31.56-7.705-46.667-2.876-14.711 4.704-28.06 14.277-38.897 27.896-13.438 16.888-22.522 39.106-25.844 63.21-1.102 7.998-1.234 10.313-1.227 21.648.005 9.88.074 11.661.624 16.304.681 5.754 2.078 13.936 3.072 17.993l.642 2.624-.702.281c-1.875.75-12.7 4.492-12.992 4.492-.194 0-.404-.517-.503-1.24z" fill="green"/><path d="M11.614 189.907c-.245-1.483-.172-150.643.08-162.032.121-5.52.334-10.052.49-10.438.158-.392.712-.879 1.304-1.144.969-.435 6.353-.457 93.115-.387 88.674.073 92.113.093 92.831.564 1.24.812 1.501 1.896 1.676 6.936.088 2.531.054 4.997-.076 5.48l-.234.877-5.21-3.795c-6.516-4.745-12.379-8.735-13.564-9.23-.498-.209-1.142-.304-1.43-.213-1.199.38-1.349.635-10.79 18.299-8.92 16.69-11.478 21.37-11.678 21.376-.098.003-.82-.668-1.603-1.492-1.66-1.744-5.581-5.112-5.726-4.917-.054.073-.267-.107-.473-.4-.369-.526-2.843-2.425-2.843-2.182 0 .068-.346-.195-.77-.585-.961-.885-6.183-4.138-6.642-4.138-.186 0-.339-.098-.339-.217 0-.305-5.911-3.18-6.188-3.01-.124.077-.226.029-.226-.108 0-.273-3.757-1.76-7.083-2.801-3.083-.967-7.805-1.978-11.44-2.452-3.478-.453-11.85-.523-14.485-.12-.882.134-1.784.255-2.005.268-1.217.074-5.246.852-5.499 1.062-.163.135-.364.177-.448.094-.16-.161-3.447.679-3.674.939-.074.084-.254.153-.401.153-.628 0-3.608 1.041-3.608 1.26 0 .133-.11.174-.242.092-.334-.206-5.445 1.966-8.787 3.735-3.354 1.775-7.007 4.091-7.007 4.442 0 .142-.101.196-.224.12-.34-.21-6.615 4.601-9.099 6.977-1.208 1.156-2.235 2.063-2.282 2.015-.297-.296-8.503 9.24-11.558 13.431-3.794 5.206-10.52 16.694-9.781 16.709.111.002.057.097-.122.21-.617.392-5.279 11.127-5.016 11.552.073.118.037.255-.08.305-.306.128-1.421 3.17-1.26 3.432a.204.204 0 01-.105.31c-.302.111-1.935 5.296-1.759 5.581a.198.198 0 01-.098.298c-.51.2-3.757 14.374-4.21 18.37-.077.677-.364 2.888-.638 4.914-.9 6.645-1.153 12.156-1.002 21.743.107 6.768.285 10.265.708 13.862.64 5.439 2.093 13.936 3.056 17.867l.645 2.632-.838.35c-1.614.672-12.502 4.408-12.847 4.408-.196 0-.422-.44-.515-1.002z" fill="green"/><path d="M11.61 190.074c-.092-.46-.16-35.428-.152-77.709.015-70.634.174-93.227.67-94.859.102-.337.646-.848 1.21-1.136 1.01-.515 2.214-.522 90.77-.494 49.36.016 90.977.106 92.48.2 3.612.228 3.98.548 4.352 3.792.297 2.582.32 8.704.037 9.424-.163.411-.91-.04-5.126-3.095-7.014-5.082-12.322-8.673-13.757-9.308-1.148-.508-1.282-.516-1.888-.119-1.013.664-1.593 1.684-12.01 21.127-5.12 9.557-9.75 18.09-9.92 18.283-.053.06-1.15-.905-2.437-2.142-3.492-3.355-9.971-8.422-10.322-8.072-.094.095-.172.04-.172-.123 0-.331-4.756-3.356-5.279-3.357-.183 0-.334-.087-.334-.193 0-.274-3.648-2.13-6.949-3.534-14.153-6.021-30.31-6.954-44.5-2.57-3.323 1.027-7.617 2.656-7.617 2.89 0 .096-.246.193-.546.216-.63.047-7.207 3.413-7.607 3.893-.148.177-.426.355-.62.395-1.239.257-9.736 6.588-12.768 9.514-1.1 1.061-2.04 1.89-2.088 1.841-.049-.049-1.438 1.379-3.086 3.173-6.036 6.567-10.57 12.715-14.852 20.144-2 3.47-5.76 11.111-5.596 11.376.07.112.015.245-.121.294-.33.12-2.995 6.637-2.825 6.912.073.118.037.255-.08.305-.306.128-1.421 3.17-1.26 3.432a.204.204 0 01-.105.31c-.302.111-1.935 5.296-1.759 5.581.071.115.01.25-.135.298-.145.05-.304.456-.353.904-.049.448-.163.934-.254 1.082-.508.822-3.208 13.229-3.566 16.385a364.16 364.16 0 01-.638 4.913c-.9 6.645-1.153 12.156-1.002 21.743.147 9.33.571 14.43 1.82 21.88.67 3.99 1.544 8.423 1.766 8.954.092.22.154.473.139.56-.016.089.134.782.335 1.54.33 1.253.322 1.403-.092 1.625-.715.382-12.846 4.56-13.242 4.56-.195 0-.43-.376-.521-.835z" fill="green"/><path d="M11.611 190.308c-.25-.937-.17-154.571.086-164.037.126-4.63.315-8.634.421-8.898.106-.263.654-.714 1.218-1.002 1.012-.517 2.183-.523 91.173-.5 49.58.013 91.197.104 92.48.202 3.08.235 3.57.673 3.94 3.522.299 2.308.33 8.981.045 9.705-.168.427-.624.179-3.523-1.92-5.241-3.796-12.264-8.678-14.025-9.75-.962-.586-1.951-.98-2.46-.98-1.364 0-1.2-.265-10.225 16.57-8.072 15.06-12.406 22.985-12.571 22.985-.076 0-1.158-.997-2.405-2.216-2.487-2.43-7.158-6.242-7.52-6.136-.125.037-.227-.033-.227-.155s-.542-.61-1.203-1.086c-.662-.475-1.203-.796-1.203-.713 0 .083-.232-.081-.515-.365-1.124-1.124-9.83-5.94-11.245-6.22-.22-.044-.467-.17-.549-.28-.222-.297-5.405-2.208-8.143-3.002-3.243-.941-8.69-2.026-10.775-2.147-.938-.054-1.772-.166-1.854-.248-.082-.082-2.408-.15-5.17-.15-9.446 0-17.415 1.598-26.081 5.229-7.575 3.173-16.429 8.909-22.04 14.278-1.166 1.115-2.159 1.989-2.206 1.941-.146-.145-5.964 6.291-8.134 8.999-2.478 3.092-3.582 4.566-3.42 4.566.066 0-.228.373-.654.829-.426.456-.715.924-.643 1.04.072.118-.056.285-.285.373-.23.088-.35.268-.268.4.082.133-.048.317-.288.41-.24.092-.362.243-.27.335.092.093-.009.3-.225.462-1.149.86-9.787 16.928-10.072 18.735-.046.294-.235.694-.418.888-.294.31-.39.706-.312 1.287.013.094-.083.244-.213.334-.348.242-1.43 2.994-1.275 3.244.073.118.037.255-.08.305-.306.128-1.421 3.17-1.26 3.432a.204.204 0 01-.106.31c-.475.176-4.214 13.355-4.41 15.548-.045.494-.146 1.006-.224 1.139-.141.235-1.48 7.604-1.525 8.392-.012.22-.252 2.058-.533 4.084-.907 6.545-1.166 12.101-1.014 21.743.143 9.054.63 15.107 1.673 20.811.215 1.176.439 2.5.497 2.94.196 1.49.718 4.274.877 4.678.086.22.202.743.257 1.163.054.42.329 1.66.61 2.758l.512 1.997-1.16.497c-1.628.698-12.131 4.275-12.552 4.275-.19 0-.419-.27-.508-.601z" fill="green"/><path d="M11.611 190.308c-.246-.918-.172-156.145.078-164.859.132-4.582.337-7.856.512-8.184.16-.3.706-.742 1.21-.982.844-.4 8.283-.434 91.35-.416 49.736.01 91.362.104 92.502.207 2.734.25 3.283.757 3.661 3.382.324 2.247.362 9.48.053 9.968-.161.253-1.783-.774-6.077-3.852-3.221-2.308-7.478-5.265-9.46-6.572-4.486-2.957-4.96-3.012-6.452-.747-.533.809-4.397 7.845-8.588 15.635-9.6 17.848-12.048 22.317-12.226 22.317-.078 0-1.162-.997-2.41-2.216-2.368-2.314-6.941-6.083-7.267-5.99-.104.03-.37-.186-.593-.48-.222-.294-.408-.417-.412-.274-.005.143-.198-.01-.428-.339-.23-.33-.531-.53-.668-.445-.137.085-.25.037-.25-.107 0-.298-1.9-1.538-2.204-1.439-.11.036-.2-.044-.2-.178 0-.568-9.722-5.772-10.215-5.467-.115.07-.21.013-.21-.128 0-.29-1.6-.918-1.607-.63-.002.103-.093.048-.202-.123-.448-.705-12.117-4.16-12.558-3.719-.082.082-.28.044-.441-.084-.39-.312-4.868-.927-5.363-.737-.215.082-.462.035-.549-.106-.257-.417-9.884-.304-13.41.157-3.508.459-8.111 1.362-9.155 1.796-.374.156-.763.266-.865.245-.311-.064-6.087 1.988-8.501 3.02-4.926 2.106-14.7 7.911-14.7 8.73 0 .175-.076.242-.169.15-.237-.238-4.07 2.775-6.57 5.166-1.16 1.108-2.145 1.977-2.19 1.93-.197-.196-7.83 8.358-7.93 8.886-.028.147-.248.405-.488.573-.765.536-4.44 5.735-4.35 6.157.046.223-.031.335-.172.248-.14-.087-.452.141-.692.507-.24.367-.35.666-.246.666.105 0-.01.15-.256.334-1.619 1.21-11.324 19.936-11.493 22.176-.02.262-.117.476-.217.476-.173 0-.594 1.17-.625 1.737-.009.147-.081.327-.162.4-.296.27-1.32 3.265-1.188 3.477.074.121.018.26-.126.31-.143.049-.294.39-.336.757-.04.368-.176.743-.3.834-.125.091-.246.482-.268.868-.022.387-.118.703-.211.704-.153 0-.582 1.58-.618 2.271-.007.147-.083.328-.168.401-.165.143-1.843 6.376-1.97 7.32-.042.31-.148.745-.235.966-.225.568-1.774 8.652-1.941 10.129a364.16 364.16 0 01-.638 4.913c-1.024 7.564-1.184 13.063-.855 29.35.085 4.25 2.597 21.215 3.439 23.227.092.22.154.473.139.56-.016.089.136.788.339 1.555l.367 1.395-1.25.537c-1.649.708-12.04 4.238-12.475 4.238-.186 0-.411-.27-.5-.601z" fill="green"/><path d="M11.605 190.487c-.25-.653-.166-157.81.089-165.715.13-4.008.347-7.208.512-7.516.158-.295.705-.735 1.214-.977.856-.406 8.003-.434 93.086-.369 78.006.06 92.27.128 92.881.442 1.375.707 1.633 1.79 1.765 7.41.069 2.946.013 5.3-.132 5.559-.216.385-1.306-.3-7.584-4.762-8.274-5.88-11.501-7.91-12.58-7.91-1.203 0-.687-.863-11.695 19.596-8.364 15.546-10.803 19.96-11.028 19.96-.101 0-.825-.673-1.608-1.497-1.37-1.44-5.487-5.05-5.759-5.05-.072 0-.617-.449-1.21-.996-.592-.547-1.169-.939-1.28-.87-.111.069-.274-.062-.362-.291-.088-.23-.281-.342-.43-.25-.147.091-.268.037-.268-.122 0-.358-5.13-3.753-5.41-3.58-.111.07-.203.025-.203-.1 0-.123-.36-.438-.802-.698-.44-.26-.801-.398-.801-.306 0 .092-.195-.027-.433-.265-1.424-1.423-13.503-6.329-16.354-6.64-.409-.046-.862-.155-1.006-.244-.472-.292-6.089-1.302-7.827-1.407-.935-.056-1.767-.17-1.849-.252-.33-.33-10.32-.132-13.343.263-8.393 1.098-16.104 3.55-23.593 7.504-3.882 2.05-9.703 5.913-9.472 6.287.111.18.037.248-.187.17-.469-.16-3.96 2.516-6.698 5.137-1.152 1.103-2.094 1.95-2.093 1.881 0-.068-.6.469-1.335 1.193-.735.724-1.337 1.414-1.337 1.535 0 .12-.417.585-.928 1.033-1.15 1.01-4.391 4.828-4.379 5.159.006.133-.17.344-.391.467-.914.512-8.294 11.081-8.032 11.505.072.117.024.212-.108.212-.726 0-8.815 16.136-9.194 18.341-.048.276-.165.562-.26.636-.096.073-.216.374-.268.668-.051.294-.159.594-.24.668-.306.28-1.575 4.085-1.437 4.309.08.129.005.234-.166.234-.172 0-.243.18-.158.401.085.22.025.401-.134.401-.158 0-.22.173-.14.384.081.21.023.425-.13.476-.152.05-.295.42-.319.819-.023.4-.118.726-.211.727-.093 0-.23.27-.303.601-.074.33-.632 2.405-1.24 4.61-.938 3.4-2.83 11.928-2.935 13.23-.018.22-.102.822-.186 1.337-.684 4.145-1.433 10.068-1.64 12.962-.168 2.376-.253 17.362-.127 22.61.09 3.743 2.165 18.36 3.051 21.49.167.588.288 1.139.27 1.224-.017.086.193 1.028.467 2.095l.5 1.94-1.178.522c-1.656.732-11.979 4.241-12.478 4.241-.226 0-.485-.19-.574-.422z" fill="green"/><path d="M11.605 190.487c-.253-.661-.167-158.45.09-165.989.129-3.754.356-6.951.514-7.248.157-.292.702-.729 1.211-.97.856-.407 8.003-.435 93.086-.37 86.568.067 92.21.1 92.999.531.48.263.98.835 1.167 1.336.41 1.1.705 10.906.346 11.547-.219.39-.85.027-4.644-2.677-13.928-9.927-15.487-10.822-16.606-9.53-.655.756-2.134 3.426-10.108 18.241-6.735 12.515-11.112 20.525-11.373 20.814-.05.055-1.44-1.176-3.09-2.736-1.649-1.56-3.038-2.797-3.086-2.75-.048.05-.574-.36-1.168-.908-1.384-1.278-5.853-4.418-6.163-4.33-.13.037-.237-.04-.237-.17 0-.296-1.34-1.189-1.784-1.189-.182 0-.396-.168-.474-.373-.08-.205-.265-.299-.413-.207-.148.091-.269.032-.269-.132 0-.165-.12-.225-.267-.134-.147.09-.267.05-.267-.092 0-.257-2.615-1.843-3.258-1.976-.186-.039-.5-.222-.7-.407-.199-.185-.472-.268-.608-.185-.135.084-.245.043-.245-.09 0-.24-3.357-1.794-3.876-1.794a.596.596 0 01-.425-.213c-.28-.38-6.163-2.342-9.376-3.127-3.73-.912-8.613-1.709-9.329-1.522-.282.074-.58.026-.663-.107-.189-.306-10.127-.277-12.279.035-.882.128-2.165.295-2.852.371-5.98.662-15.078 3.686-21.863 7.268-3.458 1.826-9.63 5.855-9.63 6.288 0 .174-.075.241-.168.149-.237-.238-4.072 2.777-6.559 5.157-1.152 1.103-2.094 1.95-2.093 1.881 0-.068-.6.469-1.335 1.193-.735.724-1.337 1.404-1.337 1.511 0 .108-.663.823-1.473 1.589s-1.433 1.432-1.385 1.48c.048.049-.492.705-1.2 1.46-.708.753-1.287 1.46-1.287 1.57 0 .11-.415.64-.923 1.178-1.166 1.237-5.066 6.716-4.976 6.993.037.114-.127.315-.364.448-.236.132-.36.354-.275.492.085.138.041.25-.097.25-.313 0-1.205 1.33-1.205 1.796 0 .189-.087.343-.192.343-.259 0-2.48 3.76-2.48 4.197 0 .19-.093.346-.206.346-.453 0-6.714 13.117-6.97 14.6-.047.275-.182.572-.3.659-.117.086-.233.417-.257.735-.024.317-.128.577-.232.577-.15 0-.508 1.078-.622 1.87-.01.074-.116.287-.234.473-.422.665-1.768 4.946-1.627 5.175.08.128.046.233-.075.233-.202 0-1.183 3.034-1.293 3.996-.026.228-.168.714-.316 1.082-.345.86-1.978 7.63-1.91 7.926.027.124-.025.406-.116.626-.09.22-.397 1.664-.68 3.208-.532 2.9-.545 2.983-.693 4.543-.05.515-.158 1.116-.241 1.337-.235.62-.928 6.909-1.252 11.359-.237 3.255-.251 10.938-.04 21.273.074 3.662 2.155 18.343 3.046 21.49.167.588.288 1.139.27 1.224-.017.086.19 1.02.463 2.078l.494 1.922-.717.37c-1.104.571-12.3 4.428-12.852 4.428-.269 0-.562-.19-.65-.422z" fill="green"/><path d="M11.605 190.487c-.249-.65-.164-159.2.089-166.421.249-7.104.338-7.445 2.086-7.953.718-.208 27.198-.269 93.078-.211 88.45.076 92.103.098 92.79.565.393.267.858.868 1.034 1.336.404 1.078.697 11.34.334 11.703-.164.164-1.26-.45-3.04-1.706-1.532-1.08-4.89-3.45-7.463-5.268-8.977-6.346-9.888-6.723-11.265-4.668-.398.595-4.412 7.932-8.92 16.304-9.181 17.047-11.941 22.037-12.191 22.037-.094 0-.876-.731-1.738-1.625-3.203-3.323-11.084-9.407-11.82-9.124-.234.09-.32.035-.216-.134.184-.297-1.034-1.233-1.604-1.233-.182 0-.396-.168-.474-.373-.08-.205-.265-.299-.413-.207-.148.091-.269.06-.269-.069 0-.25-4.131-2.641-4.81-2.785-.221-.047-.462-.164-.536-.262-.464-.608-9.484-4.082-9.912-3.817-.134.083-.244.038-.244-.1 0-.296-5.538-1.73-5.877-1.52-.128.08-.312.016-.409-.14-.096-.157-.375-.26-.62-.231a1.964 1.964 0 01-.844-.116c-1.9-.803-14.081-1.278-18.041-.704-.882.128-2.17.295-2.863.372-3.42.377-11.97 2.628-11.97 3.15 0 .133-.117.17-.259.081-.368-.227-5.746 2.018-9.363 3.91-4.04 2.112-9.973 6.023-9.732 6.413.111.18.037.248-.187.17-.469-.16-3.956 2.514-6.71 5.146-1.158 1.108-2.142 1.978-2.186 1.934-.044-.044-1.312 1.245-2.818 2.864-1.506 1.62-2.69 2.944-2.633 2.944.058 0-.472.615-1.178 1.367-.706.751-1.283 1.52-1.283 1.708 0 .188-.165.406-.367.483-.452.173-3.267 3.933-3.174 4.24.036.12-.05.22-.19.22-.35 0-2.435 3.1-2.226 3.309.091.09.042.166-.11.166-.33 0-1.773 2.116-1.773 2.6 0 .187-.089.34-.197.34-.269 0-2.743 4.248-2.743 4.71 0 .202-.099.368-.22.368-.277 0-2.174 3.74-1.9 3.746.113.002.058.097-.122.211-.658.418-5.998 12.64-6.27 14.35-.047.295-.163.595-.257.669-.227.176-2.648 7.806-2.735 8.616-.037.345-.141.748-.233.896-.558.903-3.35 13.92-3.532 16.461-.05.688-.155 1.358-.235 1.487-.08.13-.215.95-.3 1.823-.084.873-.35 3.21-.59 5.195-.334 2.751-.44 6.082-.448 14.031-.006 5.733.007 10.976.03 11.652.131 3.966 2.188 18.401 3.062 21.49.167.588.288 1.139.27 1.224-.017.086.19 1.02.463 2.078l.494 1.922-.735.38c-1.127.583-12.26 4.418-12.825 4.418-.274 0-.57-.19-.66-.422z" fill="#f9f9f9"/><path d="M11.888 190.731c-.098-.098-.2-1.872-.228-3.942-.047-3.573-.059-3.649-.232-1.492-.1 1.25-.137-13.604-.082-33.008.055-19.404.13-56.903.165-83.331.036-26.429.151-47.777.256-47.44.105.336.163-.311.13-1.438-.034-1.126.03-1.991.143-1.922.113.07.22-.12.238-.424.018-.302.049-.675.067-.827.044-.362.75-.794 1.023-.625.117.073.213.006.213-.148 0-.195 27.86-.231 91.607-.119 50.383.089 92.208.177 92.943.197 1.08.03 1.437.164 1.866.705.29.367.604.702.696.744.091.042.106.39.033.775-.074.384-.026.633.105.553.264-.16.487 8.908.244 9.892-.145.582-.18.59-.955.188-.443-.229-2.997-1.997-5.674-3.93-6.822-4.924-12.1-8.421-13.014-8.622-1.689-.37-1.13-1.245-11.105 17.371-10.814 20.181-11.852 22.05-12.25 22.05-.137 0-1.284-.993-2.549-2.207-3.59-3.448-8.89-7.573-10.533-8.197-.396-.15-.72-.379-.72-.508 0-.342-5.533-3.525-9.09-5.228-5.156-2.47-12.397-4.703-18.839-5.808-.735-.127-4.163-.307-7.617-.4-5.082-.139-6.944-.086-9.755.277-7.068.912-13.888 2.953-20.647 6.18-4.8 2.29-10.427 5.704-12.034 7.298-.253.252-.786.622-1.184.823-2.096 1.057-8.952 7.34-12.746 11.68-4.214 4.821-6.24 7.397-8.234 10.472-.411.634-1 1.476-1.31 1.871-1.604 2.05-5.205 8.496-8.016 14.35-5.671 11.812-9.313 23.571-11.587 37.417-1.557 9.482-1.697 11.501-1.725 24.99-.025 12.177-.01 12.54.721 17.982.893 6.635 1.81 11.969 2.724 15.839.37 1.563.672 2.959.672 3.1 0 .391-2.262 1.31-8.047 3.267-5.71 1.932-5.418 1.85-5.673 1.595z" fill="#efa"/><path d="M11.865 190.308c-.533-2.39-.633-12.825-.524-54.99.091-35.633.343-98.685.462-115.929.005-.772.11-1.403.231-1.403.123 0 .223-.297.223-.659 0-.404.232-.79.6-1 .777-.44 71.283-.584 139.23-.286l47.223.208.8.765c.439.421.737.927.661 1.123-.075.197-.055.49.045.653.1.162.245 2.487.322 5.166.117 4.08.075 4.925-.254 5.198-.324.27-1.407-.401-6.244-3.866-7.895-5.655-12.282-8.57-13.205-8.773-1.681-.369-1.156-1.192-11.09 17.373-8.306 15.522-10.017 18.675-11.288 20.797l-.93 1.554-1.908-1.828c-3.844-3.68-8.919-7.697-10.862-8.597-.515-.238-1.098-.651-1.297-.918a2.858 2.858 0 00-.935-.746 12.706 12.706 0 01-1.11-.588c-9.584-5.843-19.781-9.185-30.043-9.847-11.825-.763-21.318.908-32.096 5.648-4.326 1.902-10.104 5.255-12.702 7.37-.768.627-1.743 1.32-2.165 1.54-2.461 1.284-10.32 8.747-14.554 13.819-3.21 3.847-9.066 11.855-9.066 12.399 0 .071-.354.654-.787 1.295-1.713 2.54-6.178 11.342-8.41 16.586-3.997 9.384-7.218 20.914-9.088 32.528-1.308 8.125-1.493 11.135-1.493 24.3 0 11.54.04 12.616.67 17.558.8 6.296 1.498 10.479 2.554 15.317.432 1.976.785 3.734.785 3.906 0 .171-1.413.827-3.14 1.457-3.718 1.355-9.98 3.471-10.274 3.471-.114 0-.267-.27-.34-.601z" fill="#d4ff2a"/></g><g opacity=".88"><g opacity=".88" paint-order="stroke markers fill"><rect width="204.713" height="282.451" x="3.93" y="8.226" ry="0" opacity=".72" fill="url(#c)" filter="url(#d)"/><path d="M152.573 191.55c-3.743-.44-9.234-1.505-12.495-2.422l-1.403-.395V173.27h4.997l.591 2.239c1.53 5.788 4.271 9.224 8.487 10.634 1.959.655 6.577.931 8.777.524 2.285-.423 5.247-1.952 6.423-3.315 2.302-2.667 3.174-5.47 3.18-10.215.004-4.144-.556-6.347-2.261-8.902-2.036-3.048-4.694-5.091-12.42-9.547-6.804-3.923-8.03-4.79-11.103-7.866-3.087-3.087-4.25-4.94-5.372-8.564-.837-2.7-.843-8.153-.013-11.257 3.446-12.88 16.834-17.734 36.276-13.156l3.063.722v15.406h-4.966l-.473-1.804c-.731-2.794-2.605-6.418-4.093-7.918-2.373-2.392-5.078-3.231-9.82-3.047-4.572.179-7.33 1.523-9.299 4.535-1.533 2.345-1.884 3.524-2.023 6.805-.159 3.717.356 6.298 1.702 8.545 1.943 3.242 4.628 5.404 11.76 9.472 8.185 4.669 12.078 7.677 14.674 11.34 2.823 3.982 3.686 6.896 3.684 12.43-.001 5.765-.908 9.316-3.327 13.028-2.411 3.7-6.767 6.51-11.764 7.588-2.417.52-10.315.894-12.782.604z" fill="#d4ff2a"/></g><g paint-order="stroke markers fill" stroke-width="3.356" fill-rule="evenodd"><path d="M180.953 17.085v109.268l24.488 4.77V35.754z" fill="#353564"/><path d="M180.953 126.353L46.326 191.18l-38.899 3.25 198.014-63.307z" fill="#afafde"/><path d="M180.953 17.085L46.326 270.85v-79.67l134.627-64.828z" fill="#8686bf"/><path d="M180.953 17.085L46.326 270.85 7.427 283.575l198.014-247.82z" fill="#4d4d9f"/><path d="M205.441 35.754L7.427 283.575v-89.144l198.014-63.308z" fill="#e9e9ff"/><path d="M46.326 270.851v-79.67l-38.899 3.25v89.144z" fill="#d7d7ff"/></g><path d="M47.03 251.825l-.011-17.204 25.423-31.77c13.983-17.474 25.587-31.607 25.787-31.407.307.307-7.654 15.5-47.178 90.027l-4.01 7.56zm59.709-93.788c0-.665 73.267-138.957 74.105-139.874.439-.48 18.253 12.27 23.672 16.944.35.302-21.213 27.885-47.917 61.295-52.706 65.941-49.86 62.424-49.86 61.635z" fill="#aad400" stroke="#000" stroke-width="3.356" paint-order="stroke markers fill"/><path d="M46.263 212.863c0-17.324-.19-21.318-1.014-21.318-.558 0-9.106.694-18.995 1.542-17.275 1.48-21.528 1.553-16.142.274 1.381-.328 2.766-.658 3.078-.734.312-.075.737-.222.945-.326.208-.104.718-.274 1.134-.378.416-.104.926-.274 1.134-.378.208-.104.718-.274 1.134-.378.416-.104.926-.274 1.134-.378a6.5 6.5 0 01.945-.347c.311-.087 1.46-.53 2.551-.985 1.852-.771 7.146-2.325 9.733-2.855.623-.128 1.219-.301 1.323-.385.104-.084.529-.238.945-.342.415-.104.926-.274 1.134-.378.207-.104.633-.26.945-.346.311-.087 1.49-.542 2.618-1.01 2.101-.874 9.627-3.15 11.837-3.58.677-.132 1.315-.308 1.42-.392.103-.084.529-.237.944-.341.416-.104.926-.274 1.134-.378a6.5 6.5 0 01.945-.347c.312-.087 1.49-.542 2.62-1.01 1.844-.767 9.299-3.059 11.457-3.523.47-.101 1.422-.431 2.117-.734.695-.303 1.716-.642 2.268-.754.552-.112 1.927-.583 3.056-1.047 1.856-.762 9.344-3.058 11.458-3.513.47-.1 1.422-.43 2.117-.733.695-.303 1.715-.643 2.268-.756.552-.114 1.514-.422 2.138-.686 3.229-1.365 7.559-2.648 7.559-2.24 0 .365-52.66 66.413-55.297 69.356-.355.397-.643-8.814-.643-20.6zm58.691-49.936c-.144-.267 21.649-27.87 48.429-61.34s49.341-61.705 50.136-62.745c1.428-1.867 1.446-1.32 1.47 45.448l.024 47.338-3.591 1.025c-1.975.564-3.76 1.063-3.969 1.109-.208.045-.947.335-1.642.643s-1.715.628-2.268.712c-.552.084-1.344.361-1.76.616-.748.46-11.046 3.623-13.229 4.063-.623.126-1.219.297-1.323.38-.103.085-.529.238-.945.342-.415.104-.926.274-1.133.378-.208.104-.634.26-.945.347-.312.087-1.46.53-2.552.985-1.851.771-7.146 2.325-9.733 2.856-.623.127-1.219.3-1.323.385-.103.083-.529.237-.944.34-.416.105-.926.275-1.134.379-.208.104-.719.274-1.134.378-.416.104-.926.274-1.134.378a6.5 6.5 0 01-.945.347c-.312.086-1.46.53-2.552.985-1.851.771-7.146 2.325-9.732 2.855-.624.128-1.22.301-1.323.385-.104.084-.53.238-.945.341-.416.104-.926.275-1.134.378a6.5 6.5 0 01-.945.347c-.312.087-1.49.542-2.62 1.01-2.1.874-9.626 3.15-11.835 3.58-.677.132-1.316.308-1.42.392-.104.084-.53.237-.945.341-.416.104-.926.274-1.134.378a6.606 6.606 0 01-.945.349c-.312.088-1.077.387-1.7.666-2.929 1.306-12.892 4.061-13.125 3.63z" fill="#cf0" stroke="#000" stroke-width="3.356" paint-order="stroke markers fill"/><path d="M7.71 239.015v-44.103l5.102-.21c2.807-.115 11.036-.702 18.288-1.304 9.109-.756 13.336-.85 13.674-.304.48.776 1.486 46.003 1.488 66.89v10.61L33.6 274.725c-6.964 2.272-12.77 4.368-12.9 4.656-.131.289-.726.337-1.323.108-.597-.229-1.085-.05-1.085.397s-.51.617-1.134.378c-.624-.24-1.134-.07-1.134.378 0 .447-.51.617-1.134.378-.624-.24-1.134-.132-1.134.24 0 .37-.595.685-1.323.699-.727.013-2.088.279-3.024.59l-1.7.567z" fill="#8a0" stroke="#000" stroke-width="3.356" paint-order="stroke markers fill"/><ellipse cx="106.967" cy="148.833" rx="99.44" ry="133.835" opacity=".8" fill="url(#e)" stroke="url(#f)" stroke-width="3.356" paint-order="stroke markers fill"/><text style="line-height:1.25;-inkscape-font-specification:Comfortaa" x="39.883" y="182.805" transform="scale(.95739 1.0445)" font-weight="400" font-size="64.525" font-family="Comfortaa" letter-spacing="0" word-spacing="0" stroke-width="3.356"><tspan x="39.883" y="182.805" style="-inkscape-font-specification:'Cambria Math'" font-size="112.022" font-family="Cambria Math">ICS</tspan></text></g></svg>